<svg width="24" height="24" viewBox="0 0 24 24" fill="none" xmlns="http://www.w3.org/2000/svg">
<path fill-rule="evenodd" clip-rule="evenodd" d="M12.0004 1.88711C12.4975 1.88711 12.9004 2.29005 12.9004 2.78711V4.35325C14.2941 4.54781 15.5962 5.1906 16.6027 6.19705C17.8232 7.41763 18.5089 9.0731 18.5089 10.7993V14.8053C18.5089 15.2041 18.6674 15.5866 18.9494 15.8686C19.2313 16.1506 19.6138 16.309 20.0126 16.309C20.5097 16.309 20.9126 16.7119 20.9126 17.209C20.9126 17.706 20.5097 18.109 20.0126 18.109H3.98829C3.49123 18.109 3.08829 17.706 3.08829 17.209C3.08829 16.7119 3.49123 16.309 3.98829 16.309C4.38708 16.309 4.76954 16.1506 5.05153 15.8686C5.33351 15.5866 5.49193 15.2041 5.49193 14.8053V10.7993C5.49193 9.0731 6.17765 7.41763 7.39823 6.19705C8.40468 5.1906 9.70681 4.54781 11.1004 4.35325V2.78711C11.1004 2.29005 11.5034 1.88711 12.0004 1.88711ZM6.92991 16.309H17.071C16.8352 15.8477 16.7089 15.333 16.7089 14.8053V10.7993C16.7089 9.55049 16.2129 8.35286 15.3299 7.46984C14.4468 6.58683 13.2492 6.09075 12.0004 6.09075C10.7517 6.09075 9.55404 6.58683 8.67102 7.46984C7.78801 8.35286 7.29193 9.55049 7.29193 10.7993V14.8053C7.29193 15.333 7.16568 15.8477 6.92991 16.309ZM10.1627 19.6353C10.5927 19.3859 11.1434 19.5323 11.3928 19.9622C11.4546 20.0687 11.5432 20.1571 11.6498 20.2185C11.7565 20.2799 11.8774 20.3122 12.0004 20.3122C12.1235 20.3122 12.2444 20.2799 12.351 20.2185C12.4577 20.1571 12.5463 20.0687 12.608 19.9622C12.8575 19.5323 13.4082 19.3859 13.8381 19.6353C14.2681 19.8848 14.4145 20.4355 14.165 20.8654C13.9451 21.2447 13.6293 21.5594 13.2494 21.7782C12.8695 21.9971 12.4388 22.1122 12.0004 22.1122C11.562 22.1122 11.1313 21.9971 10.7514 21.7782C10.3716 21.5594 10.0558 21.2447 9.83584 20.8654C9.58643 20.4355 9.73279 19.8848 10.1627 19.6353Z" fill="#00112F"/>
</svg>
