<svg width="24" height="24" viewBox="0 0 24 24" fill="none" xmlns="http://www.w3.org/2000/svg">
<path fill-rule="evenodd" clip-rule="evenodd" d="M6.02728 18.3642C5.6758 18.7157 5.6758 19.2855 6.02728 19.637C6.37875 19.9885 6.9486 19.9885 7.30007 19.637L14.3001 12.637C14.6515 12.2855 14.6515 11.7157 14.3001 11.3642L7.30007 4.36419C6.9486 4.01272 6.37875 4.01272 6.02728 4.36419C5.67581 4.71566 5.67581 5.28551 6.02728 5.63698L12.3909 12.0006L6.02728 18.3642ZM16.4351 18.1002C16.4351 18.5973 16.838 19.0002 17.3351 19.0002C17.8322 19.0002 18.2351 18.5973 18.2351 18.1002L18.2351 5.90019C18.2351 5.40314 17.8322 5.0002 17.3351 5.0002C16.838 5.0002 16.4351 5.40314 16.4351 5.90019L16.4351 18.1002Z" fill="#00112F"/>
</svg>
