<svg width="24" height="24" viewBox="0 0 24 24" fill="none" xmlns="http://www.w3.org/2000/svg">
<path fill-rule="evenodd" clip-rule="evenodd" d="M12.0013 4.24268C12.24 4.24268 12.4689 4.3375 12.6377 4.50628L16.9234 8.79199C17.2749 9.14347 17.2749 9.71331 16.9234 10.0648C16.5719 10.4163 16.0021 10.4163 15.6506 10.0648L12.0013 6.41547L8.35198 10.0648C8.00051 10.4163 7.43066 10.4163 7.07919 10.0648C6.72771 9.71331 6.72771 9.14347 7.07919 8.79199L11.3649 4.50628C11.5337 4.3375 11.7626 4.24268 12.0013 4.24268Z" fill="#00112F"/>
<path fill-rule="evenodd" clip-rule="evenodd" d="M12.0002 19.7575C11.7615 19.7575 11.5326 19.6627 11.3638 19.4939L7.07806 15.2082C6.72659 14.8567 6.72659 14.2869 7.07806 13.9354C7.42953 13.5839 7.99938 13.5839 8.35085 13.9354L12.0002 17.5847L15.6495 13.9354C16.001 13.5839 16.5708 13.5839 16.9223 13.9354C17.2738 14.2869 17.2738 14.8567 16.9223 15.2082L12.6366 19.4939C12.4678 19.6627 12.2389 19.7575 12.0002 19.7575Z" fill="#CEDCEB"/>
</svg>
