<svg width="24" height="24" viewBox="0 0 24 24" fill="none" xmlns="http://www.w3.org/2000/svg">
<path fill-rule="evenodd" clip-rule="evenodd" d="M5.14202 4.32871C4.92606 4.32871 4.71894 4.4145 4.56623 4.56721C4.41352 4.71992 4.32773 4.92703 4.32773 5.14299V12.8573C4.32773 13.0732 4.41352 13.2804 4.56623 13.4331C4.71894 13.5858 4.92606 13.6716 5.14202 13.6716H5.99916C6.49622 13.6716 6.89916 14.0745 6.89916 14.5716C6.89916 15.0686 6.49622 15.4716 5.99916 15.4716H5.14202C4.44867 15.4716 3.78371 15.1961 3.29344 14.7059C2.80317 14.2156 2.52773 13.5506 2.52773 12.8573V5.14299C2.52773 4.44964 2.80317 3.78469 3.29344 3.29442C3.78371 2.80414 4.44867 2.52871 5.14202 2.52871H12.8563C13.5497 2.52871 14.2146 2.80414 14.7049 3.29442C15.1952 3.78469 15.4706 4.44964 15.4706 5.14299V6.00014C15.4706 6.49719 15.0676 6.90014 14.5706 6.90014C14.0735 6.90014 13.6706 6.49719 13.6706 6.00014V5.14299C13.6706 4.92703 13.5848 4.71992 13.4321 4.56721C13.2794 4.4145 13.0723 4.32871 12.8563 4.32871H5.14202ZM11.142 10.3287C10.6923 10.3287 10.3277 10.6933 10.3277 11.143V18.8573C10.3277 19.307 10.6923 19.6716 11.142 19.6716H18.8563C19.306 19.6716 19.6706 19.307 19.6706 18.8573V11.143C19.6706 10.6933 19.306 10.3287 18.8563 10.3287H11.142ZM8.52773 11.143C8.52773 9.69916 9.69819 8.52871 11.142 8.52871H18.8563C20.3001 8.52871 21.4706 9.69916 21.4706 11.143V18.8573C21.4706 20.3011 20.3001 21.4716 18.8563 21.4716H11.142C9.69819 21.4716 8.52773 20.3011 8.52773 18.8573V11.143Z" fill="#00112F"/>
</svg>
