<svg width="24" height="24" viewBox="0 0 24 24" fill="none" xmlns="http://www.w3.org/2000/svg">
<path fill-rule="evenodd" clip-rule="evenodd" d="M12 24C18.6274 24 24 18.6274 24 12C24 5.37258 18.6274 0 12 0C5.37258 0 0 5.37258 0 12C0 18.6274 5.37258 24 12 24ZM8.95711 7.54289C8.56658 7.15237 7.93342 7.15237 7.54289 7.54289C7.15237 7.93342 7.15237 8.56658 7.54289 8.95711L10.5858 12L7.54289 15.0429C7.15237 15.4334 7.15237 16.0666 7.54289 16.4571C7.93342 16.8476 8.56658 16.8476 8.95711 16.4571L12 13.4142L15.0429 16.4571C15.4334 16.8476 16.0666 16.8476 16.4571 16.4571C16.8476 16.0666 16.8476 15.4334 16.4571 15.0429L13.4142 12L16.4571 8.95711C16.8476 8.56658 16.8476 7.93342 16.4571 7.54289C16.0666 7.15237 15.4334 7.15237 15.0429 7.54289L12 10.5858L8.95711 7.54289Z" fill="#00112F"/>
</svg>
