<svg width="24" height="24" viewBox="0 0 24 24" fill="none" xmlns="http://www.w3.org/2000/svg">
<path fill-rule="evenodd" clip-rule="evenodd" d="M12 3.9C7.52649 3.9 3.9 7.52649 3.9 12C3.9 16.4735 7.52649 20.1 12 20.1C16.4735 20.1 20.1 16.4735 20.1 12C20.1 7.52649 16.4735 3.9 12 3.9ZM2.1 12C2.1 6.53238 6.53238 2.1 12 2.1C17.4676 2.1 21.9 6.53238 21.9 12C21.9 17.4676 17.4676 21.9 12 21.9C6.53238 21.9 2.1 17.4676 2.1 12ZM10.3293 14.1807C10.2639 14.4151 10.2966 14.6986 10.4601 14.9603C10.6042 15.1908 10.8286 15.3959 11.0998 15.5421V12.563C10.5886 12.4027 10.0609 12.1635 9.59872 11.7436C9.168 11.3728 8.77545 10.7895 8.71002 10.1134C8.63915 9.44279 8.86813 8.80489 9.21162 8.34146C9.70861 7.70621 10.3772 7.31683 11.0998 7.13118V6.47199C11.0998 5.97493 11.5027 5.57199 11.9998 5.57199C12.4968 5.57199 12.8998 5.97493 12.8998 6.47199V7.08214C13.6838 7.23776 14.4419 7.62329 15.0399 8.31965L15.0944 8.38508C15.3616 8.69585 15.3234 9.15928 15.0127 9.42098C14.7019 9.68813 14.2385 9.64997 13.9768 9.3392C13.9113 9.26287 13.8623 9.17018 13.835 9.0775C13.7122 8.68118 13.3458 8.35706 12.8998 8.17915V11.4332C13.34 11.5501 13.8176 11.7077 14.2766 12.0053C14.7619 12.316 15.2253 12.8067 15.4107 13.4773C15.7596 14.8077 14.9363 16.0562 13.9549 16.5305C13.6195 16.701 13.2639 16.8268 12.8998 16.905V17.472C12.8998 17.969 12.4968 18.372 11.9998 18.372C11.5027 18.372 11.0998 17.969 11.0998 17.472V16.8969C10.9872 16.8707 10.8757 16.8395 10.7655 16.8031C10.2421 16.6287 9.73502 16.3342 9.32066 15.8981C9.11893 15.6745 8.93356 15.4183 8.79181 15.1293C8.6555 14.8349 8.56827 14.5132 8.5301 14.1752L8.51375 14.0389C8.44832 13.5264 8.81361 13.0575 9.32611 12.9921C9.83861 12.9267 10.3075 13.292 10.3729 13.8045C10.3729 13.9353 10.362 14.0662 10.3293 14.1807ZM12.8998 15.6049C13.0232 15.5418 13.1398 15.4669 13.2462 15.3856C13.5188 15.1675 13.7587 14.9112 13.8841 14.6605C14.0204 14.3933 14.0531 14.0934 13.9822 13.8753C13.9222 13.6627 13.7369 13.4392 13.4588 13.2702C13.3022 13.1711 13.1118 13.0888 12.8998 13.0191V15.6049ZM11.0998 10.9276V8.37345C10.8015 8.58343 10.5557 8.86454 10.4002 9.14292C10.0621 9.71539 10.1003 10.1788 10.6128 10.6095C10.7473 10.7344 10.9118 10.8386 11.0998 10.9276Z" fill="#00112F"/>
</svg>
