<svg width="24" height="24" viewBox="0 0 24 24" fill="none" xmlns="http://www.w3.org/2000/svg">
<path fill-rule="evenodd" clip-rule="evenodd" d="M12.0003 1.67129C12.4973 1.67129 12.9003 2.07423 12.9003 2.57129V5.09986H16.286C16.7831 5.09986 17.186 5.5028 17.186 5.99986C17.186 6.49691 16.7831 6.89986 16.286 6.89986H12.9003V11.0999H14.1431C15.1775 11.0999 16.1695 11.5107 16.9009 12.2421C17.6322 12.9735 18.0431 13.9655 18.0431 14.9999C18.0431 16.0342 17.6322 17.0262 16.9009 17.7576C16.1695 18.489 15.1775 18.8999 14.1431 18.8999H12.9003V21.4284C12.9003 21.9255 12.4973 22.3284 12.0003 22.3284C11.5032 22.3284 11.1003 21.9255 11.1003 21.4284V18.8999H6.85743C6.36037 18.8999 5.95743 18.4969 5.95743 17.9999C5.95743 17.5028 6.36037 17.0999 6.85743 17.0999H11.1003V12.8999H9.85743C8.82308 12.8999 7.8311 12.489 7.09971 11.7576C6.36832 11.0262 5.95743 10.0342 5.95743 8.99986C5.95743 7.96552 6.36832 6.97353 7.09971 6.24214C7.8311 5.51075 8.82308 5.09986 9.85743 5.09986H11.1003V2.57129C11.1003 2.07423 11.5032 1.67129 12.0003 1.67129ZM11.1003 6.89986H9.85743C9.30047 6.89986 8.76633 7.12111 8.3725 7.51494C7.97868 7.90876 7.75743 8.4429 7.75743 8.99986C7.75743 9.55681 7.97868 10.091 8.3725 10.4848C8.76633 10.8786 9.30047 11.0999 9.85743 11.0999H11.1003V6.89986ZM12.9003 12.8999V17.0999H14.1431C14.7001 17.0999 15.2342 16.8786 15.6281 16.4848C16.0219 16.091 16.2431 15.5568 16.2431 14.9999C16.2431 14.4429 16.0219 13.9088 15.6281 13.5149C15.2342 13.1211 14.7001 12.8999 14.1431 12.8999H12.9003Z" fill="#00112F"/>
</svg>
