<svg width="24" height="24" viewBox="0 0 24 24" fill="none" xmlns="http://www.w3.org/2000/svg">
<path fill-rule="evenodd" clip-rule="evenodd" d="M14.7919 2.79232C15.1434 2.44085 15.7132 2.44085 16.0647 2.79232L19.4933 6.22089C19.662 6.38967 19.7569 6.61859 19.7569 6.85729C19.7569 7.09598 19.662 7.3249 19.4933 7.49368L10.0647 16.9223C9.89591 17.091 9.66699 17.1859 9.42829 17.1859H5.99972C5.50267 17.1859 5.09972 16.7829 5.09972 16.2859V12.8573C5.09972 12.6186 5.19454 12.3897 5.36333 12.2209L14.7919 2.79232ZM6.89972 13.2301V15.3859H9.0555L17.5841 6.85729L15.4283 4.70151L6.89972 13.2301ZM4.24258 20.5716C4.24258 20.0745 4.64552 19.6716 5.14258 19.6716H19.714C20.2111 19.6716 20.614 20.0745 20.614 20.5716C20.614 21.0686 20.2111 21.4716 19.714 21.4716H5.14258C4.64552 21.4716 4.24258 21.0686 4.24258 20.5716Z" fill="#00112F"/>
</svg>
