<svg width="24" height="24" viewBox="0 0 24 24" fill="none" xmlns="http://www.w3.org/2000/svg">
<path fill-rule="evenodd" clip-rule="evenodd" d="M15.0004 5.18564C14.5033 5.18564 14.1004 4.7827 14.1004 4.28564C14.1004 3.78859 14.5033 3.38564 15.0004 3.38564L19.7137 3.38564C20.2108 3.38564 20.6137 3.78859 20.6137 4.28564V8.9999C20.6137 9.49696 20.2108 9.8999 19.7137 9.8999C19.2167 9.8999 18.8137 9.49696 18.8137 8.9999V6.45843L10.9216 14.3506C10.5701 14.7021 10.0002 14.7021 9.64877 14.3506C9.2973 13.9991 9.2973 13.4293 9.64877 13.0778L17.5409 5.18564H15.0004ZM5.99945 7.75707C5.78349 7.75707 5.57637 7.84286 5.42366 7.99557C5.27095 8.14828 5.18516 8.3554 5.18516 8.57136V17.9999C5.18516 18.2159 5.27095 18.423 5.42366 18.5757C5.57637 18.7284 5.78349 18.8142 5.99945 18.8142H15.428C15.644 18.8142 15.8511 18.7284 16.0038 18.5757C16.1565 18.423 16.2423 18.2159 16.2423 17.9999V12.8571C16.2423 12.36 16.6452 11.9571 17.1423 11.9571C17.6394 11.9571 18.0423 12.36 18.0423 12.8571V17.9999C18.0423 18.6933 17.7669 19.3582 17.2766 19.8485C16.7863 20.3388 16.1214 20.6142 15.428 20.6142H5.99945C5.3061 20.6142 4.64114 20.3388 4.15087 19.8485C3.6606 19.3582 3.38516 18.6933 3.38516 17.9999V8.57136C3.38516 7.87801 3.6606 7.21305 4.15087 6.72278C4.64114 6.2325 5.3061 5.95707 5.99945 5.95707H11.1423C11.6394 5.95707 12.0423 6.36002 12.0423 6.85707C12.0423 7.35413 11.6394 7.75707 11.1423 7.75707H5.99945Z" fill="#00112F"/>
</svg>
