<svg width="24" height="24" viewBox="0 0 24 24" fill="none" xmlns="http://www.w3.org/2000/svg">
<path fill-rule="evenodd" clip-rule="evenodd" d="M2.93588 2.93489C3.28735 2.58342 3.8572 2.58342 4.20867 2.93489L10.8166 9.54287C10.8187 9.54486 10.8207 9.54691 10.8227 9.54892L14.4516 13.1779C14.4537 13.1799 14.4558 13.182 14.4579 13.1841L21.0658 19.792C21.4173 20.1435 21.4173 20.7134 21.0658 21.0648C20.7143 21.4163 20.1445 21.4163 19.793 21.0648L16.9887 18.2605C15.5059 19.2072 13.7849 19.728 12.0156 19.7569L12.0008 19.757C8.64129 19.757 6.06273 17.8389 4.37997 16.044C3.53039 15.1378 2.8819 14.235 2.4457 13.5596C2.22704 13.221 2.06026 12.9373 1.94689 12.7357C1.89018 12.6349 1.84673 12.5545 1.81675 12.4978C1.80176 12.4695 1.79013 12.4471 1.78188 12.431L1.77204 12.4118L1.76903 12.4058L1.768 12.4038C1.768 12.4038 1.76729 12.4024 2.57227 11.9999L1.76729 12.4024C1.63651 12.1408 1.64096 11.832 1.77923 11.5743C2.74429 9.77583 4.02918 8.17191 5.56805 6.83986L2.93588 4.20768C2.5844 3.85621 2.5844 3.28636 2.93588 2.93489ZM6.84454 8.11635C5.55045 9.21698 4.4533 10.5312 3.60115 12.0025C3.69276 12.16 3.81188 12.3571 3.95777 12.583C4.35193 13.1933 4.93559 14.0048 5.69314 14.8129C7.22325 16.445 9.35644 17.9542 11.9935 17.957C13.292 17.9345 14.5581 17.5856 15.6778 16.9496L13.7515 15.0233C13.6226 15.1024 13.4883 15.1731 13.3496 15.2349C12.9237 15.4246 12.4641 15.5267 11.9979 15.5349C11.5318 15.5431 11.0688 15.4574 10.6366 15.2828C10.2043 15.1082 9.81167 14.8483 9.48203 14.5187C9.15239 14.189 8.89252 13.7964 8.71793 13.3641C8.54333 12.9319 8.45759 12.4689 8.46581 12.0028C8.47404 11.5367 8.57606 11.077 8.76579 10.6511C8.82762 10.5124 8.89835 10.3781 8.97741 10.2492L6.84454 8.11635ZM10.3303 11.6022C10.29 11.7425 10.2681 11.8878 10.2655 12.0345C10.2616 12.2589 10.3029 12.4819 10.3869 12.69C10.471 12.8981 10.5961 13.0872 10.7548 13.2459C10.9135 13.4046 11.1026 13.5297 11.3107 13.6138C11.5188 13.6978 11.7418 13.7391 11.9662 13.7352C12.1129 13.7326 12.2582 13.7107 12.3985 13.6704L10.3303 11.6022ZM12.1687 6.04476L19.4981 13.3808C19.8243 12.937 20.1257 12.4754 20.401 11.998C20.3093 11.8404 20.1901 11.643 20.0439 11.4167C19.6498 10.8064 19.0661 9.99489 18.3085 9.18683C16.8096 7.58797 14.7319 6.10707 12.1687 6.04476ZM21.4294 11.9999L22.2344 11.5974C22.365 11.8585 22.3608 12.1667 22.2231 12.4241C21.6733 13.4528 21.0176 14.4212 20.2666 15.3136C20.1043 15.5066 19.8684 15.6226 19.6164 15.6333C19.3645 15.6441 19.1195 15.5487 18.9413 15.3702L9.56416 5.98454C9.33332 5.75349 9.24577 5.41553 9.33539 5.10148C9.425 4.78742 9.67772 4.54655 9.99572 4.47212C10.6533 4.31819 11.3265 4.24121 12.0019 4.24272L12.003 4.24272L12.0008 4.24272L12.0019 4.24272C15.3609 4.24312 17.9391 6.16098 19.6217 7.95574C20.4713 8.86197 21.1198 9.76475 21.556 10.4402C21.7746 10.7787 21.9414 11.0624 22.0548 11.264C22.1115 11.3648 22.155 11.4452 22.1849 11.5019C22.1999 11.5302 22.2116 11.5526 22.2198 11.5687L22.2296 11.5879L22.2327 11.5939L22.2337 11.596L22.2344 11.5974C22.2344 11.5974 22.2344 11.5974 21.4294 11.9999Z" fill="#00112F"/>
</svg>
