<svg width="24" height="24" viewBox="0 0 24 24" fill="none" xmlns="http://www.w3.org/2000/svg">
<path fill-rule="evenodd" clip-rule="evenodd" d="M4.91667 4.96875C6.89584 2.98957 9.25693 2 12 2C14.7431 2 17.0955 2.98089 19.0573 4.94271C21.0191 6.90452 22 9.25693 22 12C22 14.7431 21.0191 17.0955 19.0573 19.0573C17.0955 21.0191 14.7431 22 12 22C9.25693 22 6.90452 21.0191 4.94271 19.0573C2.98089 17.0955 2 14.7431 2 12C2 9.25693 2.97221 6.9132 4.91667 4.96875ZM17.8862 6.11479C16.2543 4.48283 14.2925 3.66687 12.0008 3.66687C9.70914 3.66687 7.74735 4.48283 6.1154 6.11479C4.48344 7.74674 3.66748 9.70853 3.66748 12.0002C3.66748 14.2919 4.48344 16.2537 6.1154 17.8856C7.74735 19.5176 9.70914 20.3335 12.0008 20.3335C14.2925 20.3335 16.2543 19.5176 17.8862 17.8856C19.5182 16.2537 20.3341 14.2919 20.3341 12.0002C20.3341 9.70853 19.5182 7.74674 17.8862 6.11479ZM9.65706 7.98958C10.3168 7.32986 11.098 7 12.0008 7C12.9036 7 13.6848 7.32986 14.3446 7.98958C15.0043 8.64931 15.3341 9.43055 15.3341 10.3333C15.3341 10.9931 15.1345 11.6007 14.7352 12.1562C14.3359 12.7118 13.8064 13.1111 13.1466 13.3542L12.8341 13.4583V14.5H11.1675V13.4583C11.1675 12.625 11.5494 12.0868 12.3133 11.8438L12.6258 11.7396C13.3203 11.5312 13.6675 11.0625 13.6675 10.3333C13.6675 9.88194 13.5026 9.49132 13.1727 9.16146C12.8428 8.8316 12.4522 8.66667 12.0008 8.66667C11.5494 8.66667 11.1588 8.8316 10.8289 9.16146C10.4991 9.49132 10.3341 9.88194 10.3341 10.3333H8.66748C8.66748 9.43055 8.99734 8.64931 9.65706 7.98958ZM11.1675 15.3331H12.8341V16.9998H11.1675V15.3331Z" fill="#00112F"/>
</svg>
