<svg width="24" height="24" viewBox="0 0 24 24" fill="none" xmlns="http://www.w3.org/2000/svg">
<path fill-rule="evenodd" clip-rule="evenodd" d="M5.97744 7.24925C4.94557 8.55578 4.32969 10.206 4.32969 12.0001C4.32969 13.7942 4.94557 15.4445 5.97744 16.751L8.37049 14.358C7.92903 13.6796 7.67255 12.8698 7.67255 12.0001C7.67255 11.1304 7.92904 10.3207 8.37049 9.6423L5.97744 7.24925ZM7.25023 5.97646L9.64328 8.3695C10.3216 7.92805 11.1314 7.67157 12.0011 7.67157C12.8708 7.67157 13.6806 7.92805 14.359 8.3695L16.752 5.97646C15.4455 4.94459 13.7952 4.32871 12.0011 4.32871C10.207 4.32871 8.55676 4.94459 7.25023 5.97646ZM18.0248 7.24925L15.6318 9.6423C16.0732 10.3207 16.3297 11.1304 16.3297 12.0001C16.3297 12.8698 16.0732 13.6796 15.6318 14.358L18.0248 16.751C19.0567 15.4445 19.6726 13.7942 19.6726 12.0001C19.6726 10.206 19.0567 8.55578 18.0248 7.24925ZM16.752 18.0238L14.359 15.6308C13.6806 16.0722 12.8708 16.3287 12.0011 16.3287C11.1314 16.3287 10.3216 16.0722 9.64328 15.6308L7.25023 18.0238C8.55676 19.0557 10.207 19.6716 12.0011 19.6716C13.7952 19.6716 15.4455 19.0557 16.752 18.0238ZM2.52969 12.0001C2.52969 6.76921 6.7702 2.52871 12.0011 2.52871C17.232 2.52871 21.4725 6.76921 21.4725 12.0001C21.4725 17.2311 17.232 21.4716 12.0011 21.4716C6.7702 21.4716 2.52969 17.2311 2.52969 12.0001ZM12.0011 9.47157C10.6046 9.47157 9.47255 10.6036 9.47255 12.0001C9.47255 13.3966 10.6046 14.5287 12.0011 14.5287C13.3976 14.5287 14.5297 13.3966 14.5297 12.0001C14.5297 10.6036 13.3976 9.47157 12.0011 9.47157Z" fill="#00112F"/>
</svg>
