<svg width="24" height="24" viewBox="0 0 24 24" fill="none" xmlns="http://www.w3.org/2000/svg">
<path d="M16.1734 9.00465C16.1734 9.6938 15.6147 10.2525 14.9255 10.2525C14.2364 10.2525 13.6777 9.6938 13.6777 9.00465C13.6777 8.3155 14.2364 7.75684 14.9255 7.75684C15.6147 7.75684 16.1734 8.3155 16.1734 9.00465Z" fill="#00112F"/>
<path fill-rule="evenodd" clip-rule="evenodd" d="M14.8756 2.47559C11.212 2.47559 8.24211 5.44549 8.24211 9.10906C8.24211 9.96867 8.40605 10.7916 8.70475 11.5471L7.39341 12.8531L7.38206 12.8418C6.83533 12.295 5.9489 12.295 5.40216 12.8418L3.60927 14.6347C3.06254 15.1814 3.06253 16.0678 3.60927 16.6146L3.61932 16.6246L3.10927 17.1347C2.56254 17.6814 2.56253 18.5678 3.10927 19.1146L4.89942 20.9047C5.44914 21.4544 6.34148 21.451 6.88694 20.897L12.4234 15.2743C13.1828 15.5765 14.0106 15.7425 14.8756 15.7425C18.5392 15.7425 21.5091 12.7726 21.5091 9.10906C21.5091 5.44549 18.5392 2.47559 14.8756 2.47559ZM10.0421 9.10906C10.0421 6.43961 12.2061 4.27559 14.8756 4.27559C17.545 4.27559 19.7091 6.43961 19.7091 9.10906C19.7091 11.7785 17.545 13.9425 14.8756 13.9425C14.0675 13.9425 13.3083 13.745 12.6409 13.3963L12.0503 13.0877L5.88717 19.3469L4.6649 18.1246L6.1649 16.6246L5.1649 15.6246L6.39211 14.3974L7.39082 15.3961L10.8851 11.9161L10.5812 11.33C10.237 10.666 10.0421 9.91159 10.0421 9.10906Z" fill="#00112F"/>
</svg>
