<svg width="24" height="24" viewBox="0 0 24 24" fill="none" xmlns="http://www.w3.org/2000/svg">
<path fill-rule="evenodd" clip-rule="evenodd" d="M4.38193 11.1001H7.71888C7.91403 8.77639 8.68553 6.54499 9.95379 4.60493C6.99082 5.42341 4.74714 7.97487 4.38193 11.1001ZM12.0011 4.82807C10.6046 6.64427 9.7463 8.81816 9.52616 11.1001H14.4761C14.2559 8.81816 13.3977 6.64427 12.0011 4.82807ZM14.4761 12.9001C14.2559 15.1821 13.3977 17.356 12.0011 19.1722C10.6046 17.356 9.7463 15.1821 9.52616 12.9001H14.4761ZM7.71888 12.9001H4.38193C4.74714 16.0254 6.99082 18.5769 9.95379 19.3953C8.68553 17.4553 7.91403 15.2239 7.71888 12.9001ZM14.0485 19.3953C15.3167 17.4553 16.0882 15.2239 16.2834 12.9001H19.6203C19.2551 16.0254 17.0114 18.5769 14.0485 19.3953ZM19.6203 11.1001H16.2834C16.0882 8.7764 15.3167 6.54499 14.0484 4.60493C17.0114 5.42341 19.2551 7.97487 19.6203 11.1001ZM2.52969 12.0001C2.52969 6.76921 6.7702 2.52871 12.0011 2.52871C17.232 2.52871 21.4725 6.76921 21.4725 12.0001C21.4725 17.2311 17.232 21.4716 12.0011 21.4716C6.7702 21.4716 2.52969 17.2311 2.52969 12.0001Z" fill="#00112F"/>
</svg>
