<svg width="24" height="24" viewBox="0 0 24 24" fill="none" xmlns="http://www.w3.org/2000/svg">
<path fill-rule="evenodd" clip-rule="evenodd" d="M11.1 4C11.1 3.50294 11.5029 3.1 12 3.1C12.376 3.1 12.7469 3.12336 13.1114 3.16881C17.5026 3.71638 20.9 7.46074 20.9 12C20.9 16.9153 16.9153 20.9 12 20.9C7.08467 20.9 3.10001 16.9153 3.10001 12C3.10001 11.4307 3.15357 10.8732 3.25617 10.3323C3.34881 9.84392 3.81979 9.52313 4.30813 9.61577C4.79648 9.7084 5.11727 10.1794 5.02463 10.6677C4.9429 11.0986 4.90001 11.5439 4.90001 12C4.90001 15.9212 8.07878 19.1 12 19.1C15.9212 19.1 19.1 15.9212 19.1 12C19.1 8.38002 16.3901 5.3916 12.8886 4.95498C12.5979 4.91872 12.3013 4.9 12 4.9C11.5029 4.9 11.1 4.49705 11.1 4Z" fill="#00112F"/>
</svg>
