<svg width="24" height="24" viewBox="0 0 24 24" fill="none" xmlns="http://www.w3.org/2000/svg">
<path fill-rule="evenodd" clip-rule="evenodd" d="M11.9994 4.32871C11.1015 4.32871 10.2403 4.68542 9.60539 5.32036C8.97044 5.95531 8.61373 6.81648 8.61373 7.71443V10.243H15.3852V7.71443C15.3852 6.81648 15.0285 5.95531 14.3935 5.32036C13.7586 4.68542 12.8974 4.32871 11.9994 4.32871ZM17.1852 10.243V7.71443C17.1852 6.33909 16.6388 5.02008 15.6663 4.04757C14.6938 3.07506 13.3748 2.52871 11.9994 2.52871C10.6241 2.52871 9.30511 3.07506 8.33259 4.04757C7.36008 5.02008 6.81373 6.33909 6.81373 7.71443V10.243H5.99945C4.55562 10.243 3.38516 11.4135 3.38516 12.8573V18.8573C3.38516 20.3011 4.55562 21.4716 5.99945 21.4716H17.9994C19.4433 21.4716 20.6137 20.3011 20.6137 18.8573V12.8573C20.6137 11.4135 19.4433 10.243 17.9994 10.243H17.1852ZM5.99945 12.043C5.54973 12.043 5.18516 12.4076 5.18516 12.8573V18.8573C5.18516 19.307 5.54973 19.6716 5.99945 19.6716H17.9994C18.4492 19.6716 18.8137 19.307 18.8137 18.8573V12.8573C18.8137 12.4076 18.4492 12.043 17.9994 12.043H5.99945Z" fill="#00112F"/>
</svg>
