<svg width="24" height="24" viewBox="0 0 24 24" fill="none" xmlns="http://www.w3.org/2000/svg">
<path fill-rule="evenodd" clip-rule="evenodd" d="M7.60039 4.88707C7.60039 4.81881 7.53352 4.77061 7.46877 4.7922L4.96876 5.62553C4.92793 5.63914 4.90039 5.67736 4.90039 5.7204V18.2789C4.90039 18.3219 4.92793 18.3601 4.96876 18.3738L7.46876 19.2071C7.53352 19.2287 7.60039 19.1805 7.60039 19.1122V4.88707ZM6.89956 3.08457C8.12987 2.67446 9.40039 3.59021 9.40039 4.88707V19.1122C9.40039 20.4091 8.12986 21.3248 6.89955 20.9147L4.39955 20.0814C3.6237 19.8228 3.10039 19.0967 3.10039 18.2789V5.7204C3.10039 4.90258 3.6237 4.17652 4.39955 3.9179L6.89956 3.08457ZM10.7879 4.99964C10.7879 4.50258 11.1908 4.09964 11.6879 4.09964H13.4997C14.5483 4.09964 15.3997 4.94891 15.3997 5.999V8.5302C15.3997 9.02726 14.9968 9.4302 14.4997 9.4302C14.0027 9.4302 13.5997 9.02726 13.5997 8.5302V5.999C13.5997 5.94452 13.5557 5.89964 13.4997 5.89964H11.6879C11.1908 5.89964 10.7879 5.4967 10.7879 4.99964ZM14.4997 14.627C14.9968 14.627 15.3997 15.0299 15.3997 15.527V17.9996C15.3997 19.049 14.5491 19.8996 13.4997 19.8996H11.6879C11.1908 19.8996 10.7879 19.4967 10.7879 18.9996C10.7879 18.5026 11.1908 18.0996 11.6879 18.0996H13.4997C13.555 18.0996 13.5997 18.0549 13.5997 17.9996V15.527C13.5997 15.0299 14.0027 14.627 14.4997 14.627ZM18.6406 9.35198C18.2905 8.99918 17.7206 8.99703 17.3678 9.34718C17.015 9.69732 17.0129 10.2672 17.363 10.62L17.8388 11.0994H11.9887C11.4916 11.0994 11.0887 11.5023 11.0887 11.9994C11.0887 12.4964 11.4916 12.8994 11.9887 12.8994H17.8453L17.3617 13.3888C17.0123 13.7423 17.0157 14.3122 17.3692 14.6615C17.7228 15.0109 18.2926 15.0076 18.642 14.654L20.6402 12.632C20.9872 12.2809 20.9866 11.7158 20.6389 11.3654L18.6406 9.35198Z" fill="#00112F"/>
</svg>
