<svg width="24" height="24" viewBox="0 0 24 24" fill="none" xmlns="http://www.w3.org/2000/svg">
<path fill-rule="evenodd" clip-rule="evenodd" d="M6.00039 5.18613C5.78443 5.18613 5.57732 5.27192 5.42461 5.42463C5.2719 5.57734 5.18611 5.78446 5.18611 6.00042V18.0004C5.18611 18.2164 5.2719 18.4235 5.42461 18.5762C5.57732 18.7289 5.78443 18.8147 6.00039 18.8147H9.42897C9.92602 18.8147 10.329 19.2176 10.329 19.7147C10.329 20.2118 9.92602 20.6147 9.42897 20.6147H6.00039C5.30704 20.6147 4.64209 20.3393 4.15181 19.849C3.66154 19.3587 3.38611 18.6938 3.38611 18.0004V6.00042C3.38611 5.30707 3.66154 4.64211 4.15181 4.15184C4.64209 3.66157 5.30704 3.38613 6.00039 3.38613H9.42897C9.92602 3.38613 10.329 3.78908 10.329 4.28613C10.329 4.78319 9.92602 5.18613 9.42897 5.18613H6.00039ZM14.7926 7.07831C15.144 6.72684 15.7139 6.72684 16.0654 7.07831L20.3511 11.364C20.7025 11.7155 20.7025 12.2853 20.3511 12.6368L16.0654 16.9225C15.7139 17.274 15.144 17.274 14.7926 16.9225C14.4411 16.5711 14.4411 16.0012 14.7926 15.6497L17.5419 12.9004H9.42897C8.93191 12.9004 8.52897 12.4975 8.52897 12.0004C8.52897 11.5034 8.93191 11.1004 9.42897 11.1004H17.5419L14.7926 8.3511C14.4411 7.99963 14.4411 7.42978 14.7926 7.07831Z" fill="#00112F"/>
</svg>
