<svg width="24" height="24" viewBox="0 0 24 24" fill="none" xmlns="http://www.w3.org/2000/svg">
<path fill-rule="evenodd" clip-rule="evenodd" d="M12.0002 4.39902C10.3942 4.39902 8.85404 5.03698 7.71846 6.17256C6.58289 7.30813 5.94493 8.84831 5.94493 10.4543C5.94493 12.7973 7.4729 15.0895 9.1759 16.8871C10.009 17.7665 10.8452 18.4868 11.474 18.9876C11.6732 19.1462 11.8509 19.2822 12.0002 19.3937C12.1494 19.2822 12.3271 19.1462 12.5263 18.9876C13.1552 18.4868 13.9913 17.7665 14.8244 16.8871C16.5274 15.0895 18.0554 12.7973 18.0554 10.4543C18.0554 8.84831 17.4174 7.30813 16.2819 6.17256C15.1463 5.03698 13.6061 4.39902 12.0002 4.39902ZM12.0002 20.5007C11.5009 21.2495 11.5007 21.2494 11.5005 21.2492L11.4981 21.2476L11.4927 21.244L11.4745 21.2317C11.4592 21.2213 11.4374 21.2064 11.4096 21.1872C11.3541 21.1487 11.2745 21.0928 11.1744 21.0205C10.9741 20.8759 10.6911 20.6651 10.3528 20.3957C9.67755 19.858 8.7749 19.0811 7.86919 18.1251C6.09457 16.2518 4.14493 13.5208 4.14493 10.4543C4.14493 8.37092 4.97253 6.37291 6.44567 4.89977C7.91881 3.42662 9.91682 2.59902 12.0002 2.59902C14.0835 2.59902 16.0815 3.42662 17.5546 4.89977C19.0278 6.37291 19.8554 8.37092 19.8554 10.4543C19.8554 13.5208 17.9057 16.2518 16.1311 18.1251C15.2254 19.0811 14.3228 19.858 13.6475 20.3957C13.3092 20.6651 13.0262 20.8759 12.826 21.0205C12.7258 21.0928 12.6462 21.1487 12.5907 21.1872C12.5629 21.2064 12.5411 21.2213 12.5258 21.2317L12.5076 21.244L12.5022 21.2476L12.5005 21.2488C12.5002 21.249 12.4994 21.2495 12.0002 20.5007ZM12.0002 20.5007L12.4994 21.2495C12.1971 21.4511 11.8028 21.4508 11.5005 21.2492L12.0002 20.5007ZM12.0002 9.03584C11.2168 9.03584 10.5817 9.67089 10.5817 10.4543C10.5817 11.2376 11.2168 11.8727 12.0002 11.8727C12.7835 11.8727 13.4186 11.2376 13.4186 10.4543C13.4186 9.67089 12.7835 9.03584 12.0002 9.03584ZM8.78175 10.4543C8.78175 8.67677 10.2227 7.23584 12.0002 7.23584C13.7776 7.23584 15.2186 8.67677 15.2186 10.4543C15.2186 12.2317 13.7776 13.6727 12.0002 13.6727C10.2227 13.6727 8.78175 12.2317 8.78175 10.4543Z" fill="#00112F"/>
</svg>
