<svg width="24" height="24" viewBox="0 0 24 24" fill="none" xmlns="http://www.w3.org/2000/svg">
<path fill-rule="evenodd" clip-rule="evenodd" d="M3.38515 6.85742C3.38515 6.36036 3.7881 5.95742 4.28515 5.95742H19.7137C20.2108 5.95742 20.6137 6.36036 20.6137 6.85742C20.6137 7.35448 20.2108 7.75742 19.7137 7.75742H4.28515C3.7881 7.75742 3.38515 7.35448 3.38515 6.85742ZM3.38515 12.0003C3.38515 11.5032 3.7881 11.1003 4.28515 11.1003H19.7137C20.2108 11.1003 20.6137 11.5032 20.6137 12.0003C20.6137 12.4973 20.2108 12.9003 19.7137 12.9003H4.28515C3.7881 12.9003 3.38515 12.4973 3.38515 12.0003ZM3.38515 17.1431C3.38515 16.6461 3.7881 16.2431 4.28515 16.2431H19.7137C20.2108 16.2431 20.6137 16.6461 20.6137 17.1431C20.6137 17.6402 20.2108 18.0431 19.7137 18.0431H4.28515C3.7881 18.0431 3.38515 17.6402 3.38515 17.1431Z" fill="#00112F"/>
</svg>
