<svg width="24" height="24" viewBox="0 0 24 24" fill="none" xmlns="http://www.w3.org/2000/svg">
<path d="M11.1431 11.9997C11.1431 12.4731 11.5269 12.8569 12.0003 12.8569C12.4737 12.8569 12.8574 12.4731 12.8574 11.9997C12.8574 11.5263 12.4737 11.1426 12.0003 11.1426C11.5269 11.1426 11.1431 11.5263 11.1431 11.9997Z" fill="#00112F"/>
<path d="M11.1431 17.9997C11.1431 18.4731 11.5269 18.8569 12.0003 18.8569C12.4737 18.8569 12.8574 18.4731 12.8574 17.9997C12.8574 17.5263 12.4737 17.1426 12.0003 17.1426C11.5269 17.1426 11.1431 17.5263 11.1431 17.9997Z" fill="#00112F"/>
<path d="M11.1431 5.99972C11.1431 6.47311 11.5269 6.85686 12.0003 6.85686C12.4737 6.85686 12.8574 6.47311 12.8574 5.99972C12.8574 5.52633 12.4737 5.14258 12.0003 5.14258C11.5269 5.14258 11.1431 5.52633 11.1431 5.99972Z" fill="#00112F"/>
<path d="M11.1431 11.9997C11.1431 12.4731 11.5269 12.8569 12.0003 12.8569C12.4737 12.8569 12.8574 12.4731 12.8574 11.9997C12.8574 11.5263 12.4737 11.1426 12.0003 11.1426C11.5269 11.1426 11.1431 11.5263 11.1431 11.9997Z" stroke="#00112F" stroke-width="1.5" stroke-linecap="round" stroke-linejoin="round"/>
<path d="M11.1431 17.9997C11.1431 18.4731 11.5269 18.8569 12.0003 18.8569C12.4737 18.8569 12.8574 18.4731 12.8574 17.9997C12.8574 17.5263 12.4737 17.1426 12.0003 17.1426C11.5269 17.1426 11.1431 17.5263 11.1431 17.9997Z" stroke="#00112F" stroke-width="1.5" stroke-linecap="round" stroke-linejoin="round"/>
<path d="M11.1431 5.99972C11.1431 6.47311 11.5269 6.85686 12.0003 6.85686C12.4737 6.85686 12.8574 6.47311 12.8574 5.99972C12.8574 5.52633 12.4737 5.14258 12.0003 5.14258C11.5269 5.14258 11.1431 5.52633 11.1431 5.99972Z" stroke="#00112F" stroke-width="1.5" stroke-linecap="round" stroke-linejoin="round"/>
</svg>
