<svg width="24" height="24" viewBox="0 0 24 24" fill="none" xmlns="http://www.w3.org/2000/svg">
<path fill-rule="evenodd" clip-rule="evenodd" d="M11.1423 5.18613C7.85227 5.18613 5.18516 7.85323 5.18516 11.1433C5.18516 14.4333 7.85227 17.1004 11.1423 17.1004C12.7461 17.1004 14.2019 16.4666 15.2729 15.4358C15.2961 15.4059 15.3213 15.3772 15.3488 15.3497C15.3762 15.3223 15.4049 15.297 15.4348 15.2739C16.4656 14.2029 17.0994 12.7471 17.0994 11.1433C17.0994 7.85323 14.4323 5.18613 11.1423 5.18613ZM17.227 15.9552C18.2742 14.6328 18.8994 12.9611 18.8994 11.1433C18.8994 6.85912 15.4265 3.38613 11.1423 3.38613C6.85815 3.38613 3.38516 6.85912 3.38516 11.1433C3.38516 15.4274 6.85815 18.9004 11.1423 18.9004C12.9601 18.9004 14.6318 18.2752 15.9542 17.228L19.0773 20.3511C19.4288 20.7026 19.9987 20.7026 20.3501 20.3511C20.7016 19.9996 20.7016 19.4298 20.3501 19.0783L17.227 15.9552Z" fill="#00112F"/>
</svg>
