<svg width="24" height="24" viewBox="0 0 24 24" fill="none" xmlns="http://www.w3.org/2000/svg">
<path fill-rule="evenodd" clip-rule="evenodd" d="M13.4417 3.28892C12.5444 2.77088 11.4389 2.77088 10.5417 3.28892L5.18047 6.38422C4.28321 6.90225 3.73047 7.85962 3.73047 8.89569V15.0863C3.73047 16.1224 4.28321 17.0797 5.18047 17.5978L10.5417 20.6931C11.4389 21.2111 12.5444 21.2111 13.4417 20.6931L18.8029 17.5978C19.7002 17.0797 20.2529 16.1224 20.2529 15.0863V8.89569C20.2529 7.85962 19.7002 6.90225 18.8029 6.38422L13.4417 3.28892ZM11.4417 4.84776C11.782 4.65127 12.2013 4.65127 12.5417 4.84776L17.9029 7.94306C18.2432 8.13956 18.4529 8.5027 18.4529 8.89569V15.0863C18.4529 15.4793 18.2432 15.8424 17.9029 16.0389L12.5417 19.1342C12.2013 19.3307 11.782 19.3307 11.4417 19.1342L6.08047 16.0389C5.74013 15.8424 5.53047 15.4793 5.53047 15.0863V8.89569C5.53047 8.5027 5.74013 8.13956 6.08047 7.94306L11.4417 4.84776ZM10.5715 11.9911C10.5715 11.2065 11.2075 10.5705 11.9921 10.5705C12.7766 10.5705 13.4126 11.2065 13.4126 11.9911C13.4126 12.7756 12.7766 13.4117 11.9921 13.4117C11.2075 13.4117 10.5715 12.7756 10.5715 11.9911ZM11.9921 8.77051C10.2134 8.77051 8.77148 10.2124 8.77148 11.9911C8.77148 13.7698 10.2134 15.2117 11.9921 15.2117C13.7707 15.2117 15.2126 13.7698 15.2126 11.9911C15.2126 10.2124 13.7707 8.77051 11.9921 8.77051Z" fill="#00112F"/>
</svg>
