<svg width="24" height="24" viewBox="0 0 24 24" fill="none" xmlns="http://www.w3.org/2000/svg">
<path fill-rule="evenodd" clip-rule="evenodd" d="M6.54283 2.71683C6.7128 2.49021 6.97955 2.35683 7.26283 2.35683H17.5485C17.8318 2.35683 18.0986 2.49021 18.2685 2.71683L20.84 6.14541C20.9568 6.30119 21.02 6.49067 21.02 6.68541V18.6854C21.02 19.3788 20.7445 20.0437 20.2543 20.534C19.764 21.0243 19.099 21.2997 18.4057 21.2997H6.40569C5.71234 21.2997 5.04738 21.0243 4.55711 20.534C4.06684 20.0437 3.7914 19.3788 3.7914 18.6854V6.68541C3.7914 6.49067 3.85456 6.30119 3.9714 6.14541L6.54283 2.71683ZM7.71283 4.15683L6.4914 5.78541H18.32L17.0985 4.15683H7.71283ZM19.22 7.58541H5.5914V18.6854C5.5914 18.9014 5.6772 19.1085 5.8299 19.2612C5.98261 19.4139 6.18973 19.4997 6.40569 19.4997H18.4057C18.6217 19.4997 18.8288 19.4139 18.9815 19.2612C19.1342 19.1085 19.22 18.9014 19.22 18.6854V7.58541ZM8.97712 9.21398C9.47417 9.21398 9.87712 9.61692 9.87712 10.114C9.87712 10.7846 10.1435 11.4277 10.6177 11.9019C11.0919 12.3761 11.7351 12.6425 12.4057 12.6425C13.0763 12.6425 13.7195 12.3761 14.1937 11.9019C14.6679 11.4277 14.9343 10.7846 14.9343 10.114C14.9343 9.61692 15.3372 9.21398 15.8343 9.21398C16.3313 9.21398 16.7343 9.61692 16.7343 10.114C16.7343 11.262 16.2782 12.363 15.4665 13.1747C14.6547 13.9865 13.5537 14.4425 12.4057 14.4425C11.2577 14.4425 10.1567 13.9865 9.34493 13.1747C8.53316 12.363 8.07712 11.262 8.07712 10.114C8.07712 9.61692 8.48006 9.21398 8.97712 9.21398Z" fill="#00112F"/>
</svg>
