<svg width="24" height="24" viewBox="0 0 24 24" fill="none" xmlns="http://www.w3.org/2000/svg">
<path d="M9.59922 16.4992C9.59922 16.0022 10.0022 15.5992 10.4992 15.5992H13.4992C13.9963 15.5992 14.3992 16.0022 14.3992 16.4992C14.3992 16.9963 13.9963 17.3992 13.4992 17.3992H10.4992C10.0022 17.3992 9.59922 16.9963 9.59922 16.4992Z" fill="#00112F"/>
<path fill-rule="evenodd" clip-rule="evenodd" d="M3.5586 5.05372C3.99264 3.31757 5.55257 2.09961 7.34215 2.09961H16.6575C18.4471 2.09961 20.007 3.31757 20.441 5.05372L21.873 10.7813C21.9085 10.9233 21.9723 11.0655 21.9418 11.199C21.9729 11.3345 21.9087 11.4796 21.8718 11.6234C21.6215 12.6 20.8471 13.3084 19.8996 13.6568V17.9996C19.8996 19.6012 18.6012 20.8996 16.9996 20.8996H6.99961C5.39798 20.8996 4.09961 19.6012 4.09961 17.9996V13.6565C3.15243 13.308 2.37841 12.5998 2.12818 11.6234C2.09137 11.4798 2.04166 11.3336 2.07256 11.1984C2.04187 11.0646 2.09113 10.9236 2.1267 10.7813L3.5586 5.05372ZM5.89961 13.8767V17.9996C5.89961 18.6071 6.3921 19.0996 6.99961 19.0996H16.9996C17.6071 19.0996 18.0996 18.6071 18.0996 17.9996V13.8766C17.2524 13.7836 16.4293 13.4173 15.8604 12.834C15.6588 12.9845 15.4439 13.1127 15.2309 13.2192C14.3576 13.6559 13.214 13.9 12 13.9C10.786 13.9 9.64245 13.6559 8.76908 13.2192C8.55615 13.1127 8.34119 12.9845 8.13963 12.834C7.5705 13.4174 6.74715 13.7839 5.89961 13.8767ZM18.6948 5.49028L20.122 11.199C20.0041 11.5984 19.4468 12.1 18.5253 12.1C17.4214 12.1 16.9007 11.4241 16.9 11.0009C16.9 10.5038 16.4971 10.1 16 10.1C15.5029 10.1 15.1 10.5029 15.1 11C15.1 11.0277 15.0541 11.2951 14.4259 11.6092C13.8516 11.8964 12.9951 12.1 12 12.1C11.0049 12.1 10.1484 11.8964 9.57407 11.6092C8.94588 11.2951 8.9 11.0277 8.9 11C8.9 10.5029 8.49706 10.1 8 10.1C7.50294 10.1 7.1 10.5029 7.1 11C7.1 11.4232 6.57933 12.1 5.47474 12.1C4.55271 12.1 3.99534 11.5979 3.87783 11.1984L5.30485 5.49028C5.53857 4.55543 6.37853 3.89961 7.34215 3.89961H16.6575C17.6211 3.89961 18.4611 4.55543 18.6948 5.49028Z" fill="#00112F"/>
</svg>
