<svg width="24" height="24" viewBox="0 0 24 24" fill="none" xmlns="http://www.w3.org/2000/svg">
<path fill-rule="evenodd" clip-rule="evenodd" d="M9.41867 3.04883C10.5012 3.00548 11.5762 3.22968 12.5617 3.70116C13.5468 4.17243 14.4139 4.87693 15.1015 5.75592C15.6434 6.44856 16.0634 7.23616 16.3458 8.08007H16.6415C17.7201 8.08084 18.7584 8.47244 19.5924 9.17738C20.4248 9.88103 21.0061 10.855 21.2598 11.9379C21.5134 13.0206 21.4286 14.1643 21.016 15.1924C20.6032 16.2212 19.8805 17.0868 18.9472 17.6398C18.5195 17.8931 17.9675 17.7518 17.7141 17.3242C17.4608 16.8965 17.6021 16.3445 18.0297 16.0911C18.6038 15.751 19.072 15.2035 19.3455 14.5221C19.6192 13.84 19.6771 13.0739 19.5072 12.3484C19.3374 11.6233 18.9531 10.9939 18.4304 10.552C17.9093 10.1116 17.2796 9.88068 16.6415 9.88007H15.6678C15.251 9.88007 14.8887 9.59387 14.7922 9.18838C14.5874 8.32755 14.2069 7.53365 13.6838 6.86499C13.1609 6.19656 12.5104 5.67197 11.7849 5.32491C11.0599 4.97805 10.2759 4.81595 9.49068 4.84738C8.70542 4.87882 7.93321 5.10328 7.23164 5.50833C6.52965 5.91362 5.91457 6.49054 5.43698 7.20101C4.95926 7.91169 4.633 8.73557 4.48689 9.61136C4.34077 10.4872 4.3794 11.3877 4.59932 12.2439C4.81923 13.1 5.21355 13.8854 5.74795 14.5425C6.06156 14.9281 6.00317 15.495 5.61753 15.8086C5.2319 16.1222 4.66505 16.0638 4.35144 15.6782C3.64821 14.8134 3.13849 13.7918 2.85592 12.6917C2.57336 11.5917 2.52415 10.4377 2.71143 9.31516C2.89871 8.19256 3.31841 7.12617 3.94313 6.19682C4.56798 5.26727 5.38314 4.49709 6.33165 3.94948C7.28058 3.40162 8.3362 3.09216 9.41867 3.04883ZM12.0048 11.5994C12.2564 11.5994 12.4966 11.7047 12.667 11.8899L15.7582 15.249C16.0948 15.6147 16.0711 16.1841 15.7054 16.5207C15.3396 16.8573 14.7703 16.8336 14.4337 16.4678L12.9048 14.8065V20.0572C12.9048 20.5543 12.5018 20.9572 12.0048 20.9572C11.5077 20.9572 11.1048 20.5543 11.1048 20.0572V14.8065L9.57589 16.4678C9.23931 16.8336 8.66995 16.8573 8.30419 16.5207C7.93844 16.1841 7.91479 15.6147 8.25137 15.249L11.3425 11.8899C11.5129 11.7047 11.7531 11.5994 12.0048 11.5994Z" fill="#00112F"/>
</svg>
