<svg width="24" height="24" viewBox="0 0 24 24" fill="none" xmlns="http://www.w3.org/2000/svg">
<path fill-rule="evenodd" clip-rule="evenodd" d="M11.9997 5.18613C10.6032 5.18613 9.47116 6.31821 9.47116 7.7147C9.47116 9.1112 10.6032 10.2433 11.9997 10.2433C13.3962 10.2433 14.5283 9.1112 14.5283 7.7147C14.5283 6.31821 13.3962 5.18613 11.9997 5.18613ZM7.67116 7.7147C7.67116 5.3241 9.60912 3.38613 11.9997 3.38613C14.3903 3.38613 16.3283 5.3241 16.3283 7.7147C16.3283 10.1053 14.3903 12.0433 11.9997 12.0433C9.60912 12.0433 7.67116 10.1053 7.67116 7.7147ZM5.51039 14.9397C6.32216 14.1279 7.42315 13.6718 8.57116 13.6718H15.4283C16.5763 13.6718 17.6773 14.1279 18.4891 14.9397C19.3008 15.7514 19.7569 16.8524 19.7569 18.0004V19.7147C19.7569 20.2118 19.3539 20.6147 18.8569 20.6147C18.3598 20.6147 17.9569 20.2118 17.9569 19.7147V18.0004C17.9569 17.3298 17.6905 16.6866 17.2163 16.2124C16.7421 15.7383 16.0989 15.4718 15.4283 15.4718H8.57116C7.90054 15.4718 7.25738 15.7383 6.78319 16.2124C6.30899 16.6866 6.04258 17.3298 6.04258 18.0004V19.7147C6.04258 20.2118 5.63964 20.6147 5.14258 20.6147C4.64553 20.6147 4.24258 20.2118 4.24258 19.7147V18.0004C4.24258 16.8524 4.69863 15.7514 5.51039 14.9397Z" fill="#00112F"/>
</svg>
