<svg width="24" height="24" viewBox="0 0 24 24" fill="none" xmlns="http://www.w3.org/2000/svg">
<path fill-rule="evenodd" clip-rule="evenodd" d="M13.8996 3.99962C13.8996 3.72189 13.7714 3.45971 13.5522 3.2892C13.3329 3.11869 13.0473 3.05895 12.7781 3.12731L3.77807 5.41302C3.37901 5.51437 3.09961 5.8736 3.09961 6.28533V19.9996C3.09961 20.4967 3.50255 20.8996 3.99961 20.8996H12.9996H19.9996C20.4967 20.8996 20.8996 20.4967 20.8996 19.9996V11.1996C20.8996 10.8065 20.6445 10.4589 20.2695 10.341L13.8996 8.33907V3.99962ZM13.8996 10.2259V19.0996H15.5996V17.4996C15.5996 17.0026 16.0026 16.5996 16.4996 16.5996C16.9967 16.5996 17.3996 17.0026 17.3996 17.4996V19.0996H19.0996V11.8602L13.8996 10.2259ZM12.0996 8.99962V5.15676L4.89961 6.98533V19.0996H12.0996V8.99962ZM7.99961 9.09962C8.49667 9.09962 8.89961 9.50256 8.89961 9.99962V11.9996C8.89961 12.4967 8.49667 12.8996 7.99961 12.8996C7.50255 12.8996 7.09961 12.4967 7.09961 11.9996V9.99962C7.09961 9.50256 7.50255 9.09962 7.99961 9.09962Z" fill="#00112F"/>
</svg>
