<svg width="24" height="24" viewBox="0 0 24 24" fill="none" xmlns="http://www.w3.org/2000/svg">
<path d="M12.9 9.8231C12.9 9.32605 12.497 8.9231 12 8.9231C11.5029 8.9231 11.1 9.32605 11.1 9.8231V12.4508C11.1 12.9479 11.5029 13.3508 12 13.3508C12.497 13.3508 12.9 12.9479 12.9 12.4508V9.8231Z" fill="#00112F"/>
<path d="M12 17.2478C12.6891 17.2478 13.2478 16.6891 13.2478 16C13.2478 15.3109 12.6891 14.7522 12 14.7522C11.3109 14.7522 10.7522 15.3109 10.7522 16C10.7522 16.6891 11.3109 17.2478 12 17.2478Z" fill="#00112F"/>
<path fill-rule="evenodd" clip-rule="evenodd" d="M12 3.29688C11.5507 3.29688 11.1089 3.41268 10.7174 3.63311C10.3259 3.85354 9.99779 4.17116 9.76476 4.55532L9.76218 4.5596L2.50218 16.6796L2.49487 16.692C2.2666 17.0873 2.14582 17.5355 2.14454 17.992C2.14326 18.4485 2.26153 18.8973 2.48758 19.2939C2.71364 19.6905 3.03959 20.021 3.43302 20.2525C3.82644 20.484 4.27363 20.6084 4.73008 20.6135L4.73998 20.6135H19.26L19.2699 20.6135C19.7263 20.6084 20.1735 20.484 20.5669 20.2525C20.9604 20.021 21.2863 19.6905 21.5124 19.2939C21.7384 18.8973 21.8567 18.4485 21.8554 17.992C21.8541 17.5355 21.7333 17.0873 21.5051 16.692L21.4978 16.6796L14.2378 4.5596L14.2352 4.55532C14.0022 4.17116 13.6741 3.85354 13.2825 3.63311C12.891 3.41268 12.4493 3.29688 12 3.29688ZM11.6005 5.2016C11.7224 5.13294 11.86 5.09687 12 5.09687C12.1399 5.09687 12.2775 5.13294 12.3995 5.2016C12.5208 5.26993 12.6226 5.36823 12.6951 5.48711L12.6962 5.48885L19.9492 17.5973C20.0184 17.7191 20.055 17.8568 20.0554 17.997C20.0558 18.1392 20.019 18.279 19.9486 18.4026C19.8782 18.5261 19.7766 18.629 19.6541 18.7011C19.5327 18.7726 19.3949 18.8113 19.2541 18.8135H4.74583C4.60506 18.8113 4.46725 18.7726 4.34586 18.7011C4.22332 18.629 4.12179 18.5261 4.05138 18.4026C3.98097 18.279 3.94414 18.1392 3.94453 17.997C3.94493 17.8568 3.98152 17.7191 4.05072 17.5973L11.3038 5.48885L11.3048 5.48711C11.3773 5.36823 11.4791 5.26993 11.6005 5.2016Z" fill="#00112F"/>
</svg>
