<svg width="24" height="24" viewBox="0 0 24 24" fill="none" xmlns="http://www.w3.org/2000/svg">
<path fill-rule="evenodd" clip-rule="evenodd" d="M2.52734 4.28571C2.52734 3.78866 2.93029 3.38571 3.42734 3.38571H8.5702C9.71821 3.38571 10.8192 3.84176 11.631 4.65352C11.7631 4.7857 11.8859 4.92555 11.9988 5.07202C12.1117 4.92555 12.2344 4.7857 12.3666 4.65352C13.1783 3.84176 14.2793 3.38571 15.4273 3.38571H20.5702C21.0673 3.38571 21.4702 3.78866 21.4702 4.28571V17.1429C21.4702 17.6399 21.0673 18.0429 20.5702 18.0429H14.5702C14.1269 18.0429 13.7018 18.219 13.3883 18.5324C13.0749 18.8459 12.8988 19.271 12.8988 19.7143C12.8988 20.2113 12.4958 20.6143 11.9988 20.6143C11.5017 20.6143 11.0988 20.2113 11.0988 19.7143C11.0988 19.271 10.9227 18.8459 10.6092 18.5324C10.2958 18.219 9.87063 18.0429 9.42734 18.0429H3.42734C2.93029 18.0429 2.52734 17.6399 2.52734 17.1429V4.28571ZM11.0988 16.6717C10.5911 16.3929 10.017 16.2429 9.42734 16.2429H4.32734V5.18571H8.5702C9.24082 5.18571 9.88397 5.45211 10.3582 5.92631C10.8324 6.40051 11.0988 7.04366 11.0988 7.71428V16.6717ZM12.8988 16.6717C13.4064 16.3929 13.9806 16.2429 14.5702 16.2429H19.6702V5.18571H15.4273C14.7567 5.18571 14.1136 5.45211 13.6394 5.92631C13.1652 6.40051 12.8988 7.04366 12.8988 7.71428V16.6717Z" fill="#00112F"/>
</svg>
