<svg width="24" height="24" viewBox="0 0 24 24" fill="none" xmlns="http://www.w3.org/2000/svg">
<path d="M7.05295 3.56435C7.55 3.56435 7.95295 3.9673 7.95295 4.46435V6.31388H10.0532C10.5502 6.31388 10.9532 6.71682 10.9532 7.21388C10.9532 7.71093 10.5502 8.11388 10.0532 8.11388H7.95295V10.1074C7.95295 10.6045 7.55 11.0074 7.05295 11.0074C6.55589 11.0074 6.15295 10.6045 6.15295 10.1074V8.11388H4.05295C3.55589 8.11388 3.15295 7.71093 3.15295 7.21388C3.15295 6.71682 3.55589 6.31388 4.05295 6.31388H6.15295V4.46435C6.15295 3.9673 6.55589 3.56435 7.05295 3.56435Z" fill="#00112F"/>
<path d="M13.5627 6.3355C13.0657 6.3355 12.6627 6.73844 12.6627 7.2355C12.6627 7.73256 13.0657 8.1355 13.5627 8.1355H19.5525C20.0496 8.1355 20.4525 7.73256 20.4525 7.2355C20.4525 6.73844 20.0496 6.3355 19.5525 6.3355H13.5627Z" fill="#00112F"/>
<path d="M8.09214 13.7365C8.09214 14.3282 7.61243 14.808 7.02068 14.808C6.42893 14.808 5.94922 14.3282 5.94922 13.7365C5.94922 13.1447 6.42893 12.665 7.02068 12.665C7.61243 12.665 8.09214 13.1447 8.09214 13.7365Z" fill="#00112F"/>
<path d="M3.0707 16.441C3.0707 15.9439 3.47365 15.541 3.9707 15.541H9.97094C10.468 15.541 10.8709 15.9439 10.8709 16.441C10.8709 16.938 10.468 17.341 9.97094 17.341H3.9707C3.47365 17.341 3.0707 16.938 3.0707 16.441Z" fill="#00112F"/>
<path d="M7.02006 20.2169C7.61181 20.2169 8.09152 19.7371 8.09152 19.1454C8.09152 18.5536 7.61181 18.0739 7.02006 18.0739C6.42831 18.0739 5.9486 18.5536 5.9486 19.1454C5.9486 19.7371 6.42831 20.2169 7.02006 20.2169Z" fill="#00112F"/>
<path d="M13.6119 19.5834C13.2525 19.2401 13.246 18.6769 13.5975 18.3254L15.4056 16.5173L13.4567 14.5684C13.1052 14.2169 13.1117 13.6537 13.4712 13.3104C13.8306 12.9671 14.4069 12.9737 14.7584 13.3251L16.678 15.2448L18.5979 13.3249C18.9494 12.9735 19.5257 12.9669 19.8851 13.3102C20.2446 13.6535 20.251 14.2167 19.8996 14.5682L17.9505 16.5173L19.7588 18.3256C20.1103 18.6771 20.1038 19.2403 19.7444 19.5836C19.3849 19.9269 18.8086 19.9203 18.4572 19.5688L16.678 17.7897L14.8991 19.5686C14.5477 19.9201 13.9713 19.9267 13.6119 19.5834Z" fill="#00112F"/>
</svg>
