<svg width="24" height="24" viewBox="0 0 24 24" fill="none" xmlns="http://www.w3.org/2000/svg">
<path fill-rule="evenodd" clip-rule="evenodd" d="M8.57087 2.52871C9.06793 2.52871 9.47087 2.93165 9.47087 3.42871V4.243H14.528V3.42871C14.528 2.93165 14.931 2.52871 15.428 2.52871C15.9251 2.52871 16.328 2.93165 16.328 3.42871V4.243H17.9994C19.4433 4.243 20.6137 5.41345 20.6137 6.85728V18.8573C20.6137 20.3011 19.4433 21.4716 17.9994 21.4716H5.99944C4.55561 21.4716 3.38515 20.3011 3.38515 18.8573V6.85728C3.38515 5.41345 4.55561 4.243 5.99944 4.243H7.67087V3.42871C7.67087 2.93165 8.07381 2.52871 8.57087 2.52871ZM7.67087 6.04299H5.99944C5.54972 6.04299 5.18515 6.40756 5.18515 6.85728V9.38585H18.8137V6.85728C18.8137 6.40756 18.4492 6.04299 17.9994 6.04299H16.328V6.85728C16.328 7.35434 15.9251 7.75728 15.428 7.75728C14.931 7.75728 14.528 7.35434 14.528 6.85728V6.04299H9.47087V6.85728C9.47087 7.35434 9.06793 7.75728 8.57087 7.75728C8.07381 7.75728 7.67087 7.35434 7.67087 6.85728V6.04299ZM18.8137 11.1859H5.18515V18.8573C5.18515 19.307 5.54972 19.6716 5.99944 19.6716H17.9994C18.4492 19.6716 18.8137 19.307 18.8137 18.8573V11.1859Z" fill="#00112F"/>
</svg>
