<svg width="24" height="24" viewBox="0 0 24 24" fill="none" xmlns="http://www.w3.org/2000/svg">
<path fill-rule="evenodd" clip-rule="evenodd" d="M2.17802 7.72279C2.25077 7.0008 2.64187 6.28067 3.48975 5.79115C4.33763 5.30163 5.15682 5.32299 5.81846 5.62098C6.42854 5.89575 6.84606 6.37589 7.06093 6.74805L12.2413 15.7206C13.435 15.4005 14.7193 15.7446 15.593 16.6187L20.4829 13.7955C20.9133 13.547 21.4638 13.6945 21.7123 14.125C21.9608 14.5554 21.8133 15.1059 21.3829 15.3544L16.493 18.1776C16.8901 19.6583 16.2652 21.2783 14.8744 22.0813C13.214 23.0399 11.0909 22.471 10.1323 20.8107C9.32933 19.4199 9.59812 17.7044 10.6824 16.6206L5.50209 7.64805C5.43124 7.52534 5.27173 7.34888 5.07928 7.2622C4.93839 7.19875 4.72957 7.1538 4.38975 7.35C4.04993 7.54619 3.98444 7.74951 3.96895 7.90325C3.94779 8.11325 4.02085 8.33962 4.0917 8.46233C4.34023 8.8928 4.19274 9.44323 3.76228 9.69176C3.33181 9.94028 2.78138 9.7928 2.53286 9.36233C2.31799 8.99017 2.11094 8.38852 2.17802 7.72279ZM12.3029 17.6275C11.5035 18.089 11.2296 19.1112 11.6912 19.9107C12.1527 20.7101 13.1749 20.984 13.9744 20.5225C14.7738 20.0609 15.0477 19.0387 14.5862 18.2393C14.1246 17.4398 13.1024 17.1659 12.3029 17.6275Z" fill="#00112F"/>
<path fill-rule="evenodd" clip-rule="evenodd" d="M8.81862 5.90183C8.38102 5.2292 8.59719 4.32715 9.29213 3.92593L13.2499 1.64092C13.8944 1.26878 14.7175 1.46602 15.1234 2.08989L20.4276 10.243C20.8652 10.9156 20.6491 11.8176 19.9541 12.2189L15.9964 14.5039C15.3518 14.876 14.5287 14.6788 14.1229 14.0549L8.81862 5.90183ZM10.5575 5.27384L12.4997 8.25915L15.7636 6.37471L13.8214 3.3894L10.5575 5.27384ZM16.7466 7.88564L13.4826 9.77008L15.4248 12.7554L18.6888 10.8709L16.7466 7.88564Z" fill="#00112F"/>
</svg>
