<svg width="24" height="24" viewBox="0 0 24 24" fill="none" xmlns="http://www.w3.org/2000/svg">
<path fill-rule="evenodd" clip-rule="evenodd" d="M3.46641 3.25098C2.96935 3.25098 2.56641 3.65392 2.56641 4.15098C2.56641 4.64803 2.96935 5.05098 3.46641 5.05098H5.83161L6.45615 8.17134C6.45997 8.19549 6.46475 8.21932 6.47045 8.2428L7.76566 14.714C7.87786 15.2781 8.18479 15.7847 8.63278 16.1453C9.07846 16.5041 9.63551 16.6956 10.2074 16.6869H17.7322C18.304 16.6956 18.8611 16.5041 19.3068 16.1453C19.755 15.7846 20.062 15.2776 20.1741 14.7133L21.4165 8.19822C21.4668 7.93474 21.3969 7.66259 21.2259 7.45592C21.0549 7.24926 20.8007 7.12962 20.5324 7.12962H8.08335L7.45182 3.97435C7.36763 3.55372 6.99829 3.25098 6.56932 3.25098H3.46641ZM9.53103 14.3627L8.44362 8.92962H19.4446L18.4085 14.3627L18.408 14.3653C18.3778 14.5142 18.2965 14.6479 18.1781 14.7432C18.059 14.8391 17.9099 14.89 17.7571 14.8871L17.7398 14.8869H10.1997L10.1825 14.8871C10.0296 14.89 9.8806 14.8391 9.7615 14.7432C9.6424 14.6473 9.56082 14.5126 9.53103 14.3627ZM10.9492 19.7849C10.9492 20.6135 10.2775 21.2852 9.44895 21.2852C8.62036 21.2852 7.94865 20.6135 7.94865 19.7849C7.94865 18.9563 8.62036 18.2846 9.44895 18.2846C10.2775 18.2846 10.9492 18.9563 10.9492 19.7849ZM19.8301 19.7849C19.8301 20.6135 19.1584 21.2852 18.3298 21.2852C17.5012 21.2852 16.8295 20.6135 16.8295 19.7849C16.8295 18.9563 17.5012 18.2846 18.3298 18.2846C19.1584 18.2846 19.8301 18.9563 19.8301 19.7849Z" fill="#00112F"/>
</svg>
