<svg width="24" height="24" viewBox="0 0 24 24" fill="none" xmlns="http://www.w3.org/2000/svg">
<path fill-rule="evenodd" clip-rule="evenodd" d="M7.0779 13.935C7.42938 13.5836 7.99922 13.5836 8.3507 13.935L12 17.5844L15.6493 13.935C16.0008 13.5836 16.5707 13.5836 16.9221 13.935C17.2736 14.2865 17.2736 14.8564 16.9221 15.2078L12.6364 19.4935C12.4676 19.6623 12.2387 19.7571 12 19.7571C11.7613 19.7571 11.5324 19.6623 11.3636 19.4935L7.0779 15.2078C6.72643 14.8564 6.72643 14.2865 7.0779 13.935Z" fill="#00112F"/>
<path fill-rule="evenodd" clip-rule="evenodd" d="M12 4.24286C12.2387 4.24286 12.4676 4.33768 12.6364 4.50646L16.9221 8.79218C17.2736 9.14365 17.2736 9.7135 16.9221 10.065C16.5707 10.4164 16.0008 10.4164 15.6493 10.065L12 6.41565L8.3507 10.065C7.99922 10.4164 7.42938 10.4164 7.0779 10.065C6.72643 9.7135 6.72643 9.14365 7.0779 8.79218L11.3636 4.50646C11.5324 4.33768 11.7613 4.24286 12 4.24286Z" fill="#CEDCEB"/>
</svg>
