<svg width="24" height="24" viewBox="0 0 24 24" fill="none" xmlns="http://www.w3.org/2000/svg">
<path fill-rule="evenodd" clip-rule="evenodd" d="M17.9721 5.63678C18.3236 5.28531 18.3236 4.71546 17.9721 4.36399C17.6206 4.01252 17.0508 4.01252 16.6993 4.36399L9.69932 11.364C9.34784 11.7155 9.34784 12.2853 9.69932 12.6368L16.6993 19.6368C17.0508 19.9883 17.6206 19.9883 17.9721 19.6368C18.3236 19.2853 18.3236 18.7155 17.9721 18.364L11.6085 12.0004L17.9721 5.63678ZM7.56428 5.90078C7.56428 5.40372 7.16134 5.00078 6.66428 5.00078C6.16723 5.00078 5.76428 5.40372 5.76428 5.90078L5.76428 18.1008C5.76428 18.5978 6.16723 19.0008 6.66428 19.0008C7.16134 19.0008 7.56428 18.5978 7.56428 18.1008L7.56428 5.90078Z" fill="#00112F"/>
</svg>
