<svg width="24" height="24" viewBox="0 0 24 24" fill="none" xmlns="http://www.w3.org/2000/svg">
<path fill-rule="evenodd" clip-rule="evenodd" d="M11.9992 4.32871C7.76235 4.32871 4.32773 7.76332 4.32773 12.0001C4.32773 16.2369 7.76235 19.6716 11.9992 19.6716C16.236 19.6716 19.6706 16.2369 19.6706 12.0001C19.6706 7.76332 16.236 4.32871 11.9992 4.32871ZM2.52773 12.0001C2.52773 6.76921 6.76824 2.52871 11.9992 2.52871C17.2301 2.52871 21.4706 6.76921 21.4706 12.0001C21.4706 17.2311 17.2301 21.4716 11.9992 21.4716C6.76824 21.4716 2.52773 17.2311 2.52773 12.0001ZM11.9992 5.95728C12.4962 5.95728 12.8992 6.36022 12.8992 6.85728V11.4439L15.8302 12.9094C16.2748 13.1317 16.455 13.6723 16.2327 14.1169C16.0104 14.5615 15.4698 14.7417 15.0252 14.5194L11.5967 12.8051C11.2918 12.6527 11.0992 12.341 11.0992 12.0001V6.85728C11.0992 6.36022 11.5021 5.95728 11.9992 5.95728Z" fill="#00112F"/>
</svg>
