<svg width="24" height="24" viewBox="0 0 24 24" fill="none" xmlns="http://www.w3.org/2000/svg">
<path fill-rule="evenodd" clip-rule="evenodd" d="M5.36361 5.36361C5.71508 5.01214 6.28493 5.01214 6.6364 5.36361L12 10.7272L17.3636 5.36361C17.7151 5.01214 18.2849 5.01214 18.6364 5.36361C18.9879 5.71508 18.9879 6.28493 18.6364 6.6364L13.2728 12L18.6364 17.3636C18.9879 17.7151 18.9879 18.2849 18.6364 18.6364C18.2849 18.9879 17.7151 18.9879 17.3636 18.6364L12 13.2728L6.6364 18.6364C6.28493 18.9879 5.71508 18.9879 5.36361 18.6364C5.01214 18.2849 5.01214 17.7151 5.36361 17.3636L10.7272 12L5.36361 6.6364C5.01214 6.28493 5.01214 5.71508 5.36361 5.36361Z" fill="#00112F"/>
</svg>
