<svg width="24" height="24" viewBox="0 0 24 24" fill="none" xmlns="http://www.w3.org/2000/svg">
<path fill-rule="evenodd" clip-rule="evenodd" d="M12 3.90001C7.5265 3.90001 3.90001 7.5265 3.90001 12C3.90001 16.4735 7.5265 20.1 12 20.1C16.4735 20.1 20.1 16.4735 20.1 12C20.1 7.5265 16.4735 3.90001 12 3.90001ZM2.10001 12C2.10001 6.53239 6.53239 2.10001 12 2.10001C17.4676 2.10001 21.9 6.53239 21.9 12C21.9 17.4676 17.4676 21.9 12 21.9C6.53239 21.9 2.10001 17.4676 2.10001 12ZM10.3293 14.1807C10.2639 14.4151 10.2966 14.6986 10.4602 14.9603C10.6042 15.1908 10.8286 15.3959 11.0998 15.5421V12.563C10.5886 12.4027 10.0609 12.1635 9.59872 11.7436C9.16801 11.3728 8.77546 10.7895 8.71003 10.1134C8.63915 9.4428 8.86814 8.8049 9.21162 8.34147C9.70861 7.70622 10.3772 7.31684 11.0998 7.13119V6.472C11.0998 5.97494 11.5027 5.572 11.9998 5.572C12.4968 5.572 12.8998 5.97494 12.8998 6.472V7.08215C13.6838 7.23777 14.4419 7.6233 15.0399 8.31966L15.0944 8.38509C15.3616 8.69586 15.3234 9.15929 15.0127 9.42099C14.7019 9.68814 14.2385 9.64998 13.9768 9.33921C13.9113 9.26288 13.8623 9.17019 13.835 9.07751C13.7123 8.68119 13.3458 8.35707 12.8998 8.17916V11.4332C13.34 11.5501 13.8176 11.7077 14.2766 12.0053C14.7619 12.3161 15.2253 12.8067 15.4107 13.4774C15.7596 14.8077 14.9363 16.0562 13.955 16.5305C13.6195 16.701 13.2639 16.8268 12.8998 16.9051V17.472C12.8998 17.9691 12.4968 18.372 11.9998 18.372C11.5027 18.372 11.0998 17.9691 11.0998 17.472V16.8969C10.9872 16.8707 10.8757 16.8395 10.7655 16.8031C10.2421 16.6287 9.73503 16.3343 9.32067 15.8981C9.11894 15.6745 8.93357 15.4183 8.79181 15.1293C8.65551 14.8349 8.56828 14.5133 8.53011 14.1752L8.51376 14.0389C8.44833 13.5264 8.81362 13.0575 9.32612 12.9921C9.83862 12.9267 10.3075 13.292 10.3729 13.8045C10.3729 13.9353 10.362 14.0662 10.3293 14.1807ZM12.8998 15.6049C13.0232 15.5418 13.1399 15.4669 13.2462 15.3856C13.5188 15.1675 13.7587 14.9113 13.8841 14.6605C14.0204 14.3933 14.0531 14.0934 13.9822 13.8754C13.9222 13.6627 13.7369 13.4392 13.4588 13.2702C13.3022 13.1711 13.1118 13.0888 12.8998 13.0191V15.6049ZM11.0998 10.9276V8.37345C10.8015 8.58344 10.5557 8.86455 10.4002 9.14293C10.0622 9.7154 10.1003 10.1788 10.6128 10.6095C10.7473 10.7344 10.9118 10.8386 11.0998 10.9276Z" fill="#00112F"/>
</svg>
