<svg width="24" height="24" viewBox="0 0 24 24" fill="none" xmlns="http://www.w3.org/2000/svg">
<path fill-rule="evenodd" clip-rule="evenodd" d="M9.42383 3.14998C10.4938 3.1115 11.5586 3.31625 12.538 3.74883C13.5174 4.1814 14.3859 4.83052 15.0781 5.64732C15.6186 6.28514 16.0407 7.01223 16.3264 7.79406C17.3181 7.82016 18.4291 7.95978 19.4499 8.70659C20.2668 9.30417 20.872 10.1465 21.1777 11.1113C21.4833 12.0762 21.4736 13.1133 21.1499 14.0723C20.8262 15.0312 20.2054 15.8621 19.3775 16.4443C18.9709 16.7302 18.4095 16.6323 18.1236 16.2257C17.8377 15.8192 17.9355 15.2578 18.3421 14.9719C18.857 14.6098 19.2431 14.093 19.4445 13.4966C19.6458 12.9002 19.6518 12.2551 19.4617 11.655C19.2716 11.0549 18.8952 10.531 18.3871 10.1593C17.6649 9.63096 16.8535 9.58806 15.6626 9.58806C15.2517 9.58806 14.8929 9.30976 14.7908 8.91175C14.5924 8.13841 14.2211 7.42016 13.7049 6.81108C13.1887 6.20199 12.5411 5.71795 11.8107 5.39538C11.0804 5.07281 10.2864 4.92012 9.48852 4.94882C8.69064 4.97751 7.90967 5.18683 7.20439 5.56103C6.49912 5.93522 5.88792 6.46454 5.41682 7.10913C4.94571 7.75372 4.62697 8.49678 4.4846 9.28238C4.34223 10.068 4.37993 10.8756 4.59486 11.6446C4.8098 12.4135 5.19637 13.1236 5.72547 13.7215C6.05487 14.0938 6.02015 14.6625 5.64791 14.9919C5.27568 15.3213 4.70689 15.2866 4.37748 14.9144C3.66795 14.1126 3.14955 13.1603 2.86131 12.1291C2.57308 11.098 2.52252 10.0149 2.71345 8.96139C2.90438 7.90789 3.33181 6.91142 3.96358 6.04701C4.59534 5.1826 5.41497 4.47278 6.36076 3.97097C7.30655 3.46916 8.35385 3.18846 9.42383 3.14998ZM12.002 12.1049C12.499 12.1049 12.902 12.5078 12.902 13.0049V17.7826L14.4547 16.2299C14.8061 15.8784 15.376 15.8784 15.7275 16.2299C16.0789 16.5813 16.0789 17.1512 15.7275 17.5027L12.6384 20.5918C12.2869 20.9432 11.717 20.9432 11.3656 20.5918L8.27646 17.5027C7.92499 17.1512 7.92499 16.5813 8.27646 16.2299C8.62793 15.8784 9.19778 15.8784 9.54925 16.2299L11.102 17.7826V13.0049C11.102 12.5078 11.5049 12.1049 12.002 12.1049Z" fill="#00112F"/>
</svg>
