<svg width="24" height="24" viewBox="0 0 24 24" fill="none" xmlns="http://www.w3.org/2000/svg">
<path fill-rule="evenodd" clip-rule="evenodd" d="M4.43194 6.46122L11.9992 11.7583L19.5664 6.46122C19.4262 6.21252 19.1591 6.04258 18.8563 6.04258H5.14203C4.83928 6.04258 4.57218 6.21252 4.43194 6.46122ZM19.6706 8.58545L12.5153 13.5942C12.2054 13.8111 11.7929 13.8111 11.4831 13.5942L4.32774 8.58545V17.1426C4.32774 17.5884 4.69623 17.9569 5.14203 17.9569H18.8563C19.3021 17.9569 19.6706 17.5884 19.6706 17.1426V8.58545ZM2.52774 6.85686C2.52774 5.41695 3.70211 4.24258 5.14203 4.24258H18.8563C20.2962 4.24258 21.4706 5.41695 21.4706 6.85686V17.1426C21.4706 18.5825 20.2962 19.7569 18.8563 19.7569H5.14203C3.70211 19.7569 2.52774 18.5825 2.52774 17.1426V6.85686Z" fill="#00112F"/>
</svg>
