<svg width="24" height="24" viewBox="0 0 24 24" fill="none" xmlns="http://www.w3.org/2000/svg">
<path fill-rule="evenodd" clip-rule="evenodd" d="M3.59959 11.9997C3.69141 12.1577 3.81106 12.3557 3.95777 12.5829C4.35193 13.1932 4.93559 14.0047 5.69314 14.8127C7.22467 16.4464 9.3604 17.9569 12.0008 17.9569C14.6413 17.9569 16.777 16.4464 18.3085 14.8127C19.0661 14.0047 19.6498 13.1932 20.0439 12.5829C20.1906 12.3557 20.3103 12.1577 20.4021 11.9997C20.3103 11.8418 20.1906 11.6437 20.0439 11.4166C19.6498 10.8063 19.0661 9.99475 18.3085 9.1867C16.777 7.55307 14.6413 6.04258 12.0008 6.04258C9.3604 6.04258 7.22467 7.55307 5.69314 9.1867C4.93559 9.99475 4.35193 10.8063 3.95777 11.4166C3.81106 11.6437 3.69141 11.8418 3.59959 11.9997ZM21.4294 11.9997C22.2344 11.5972 22.2342 11.5969 22.2341 11.5966L22.2327 11.5938L22.2296 11.5878L22.2198 11.5685C22.2116 11.5525 22.1999 11.5301 22.1849 11.5018C22.155 11.4451 22.1115 11.3647 22.0548 11.2638C21.9414 11.0623 21.7746 10.7786 21.556 10.44C21.1198 9.76462 20.4713 8.86183 19.6217 7.9556C17.939 6.16066 15.3604 4.24258 12.0008 4.24258C8.64129 4.24258 6.06273 6.16066 4.37997 7.9556C3.53039 8.86183 2.8819 9.76462 2.4457 10.44C2.22704 10.7786 2.06026 11.0623 1.94689 11.2638C1.89018 11.3647 1.84673 11.4451 1.81675 11.5018C1.80176 11.5301 1.79012 11.5525 1.78187 11.5685L1.77204 11.5878L1.76903 11.5938L1.768 11.5958C1.76783 11.5961 1.76729 11.5972 2.57227 11.9997L1.76729 11.5972C1.6406 11.8506 1.6406 12.1488 1.76729 12.4022L2.57227 11.9997C1.76729 12.4022 1.76712 12.4019 1.76729 12.4022L1.768 12.4036L1.76903 12.4057L1.77204 12.4116L1.78187 12.4309C1.79012 12.4469 1.80176 12.4693 1.81675 12.4977C1.84673 12.5543 1.89018 12.6348 1.94689 12.7356C2.06026 12.9371 2.22704 13.2209 2.4457 13.5594C2.8819 14.2348 3.53039 15.1376 4.37997 16.0438C6.06273 17.8388 8.64129 19.7569 12.0008 19.7569C15.3604 19.7569 17.939 17.8388 19.6217 16.0438C20.4713 15.1376 21.1198 14.2348 21.556 13.5594C21.7746 13.2209 21.9414 12.9371 22.0548 12.7356C22.1115 12.6348 22.155 12.5543 22.1849 12.4977C22.1999 12.4693 22.2116 12.4469 22.2198 12.4309L22.2296 12.4116L22.2327 12.4057L22.2337 12.4036C22.2339 12.4033 22.2344 12.4022 21.4294 11.9997ZM21.4294 11.9997L22.2344 12.4022C22.3611 12.1488 22.3608 11.85 22.2341 11.5966L21.4294 11.9997ZM12.0008 10.3283C11.0777 10.3283 10.3294 11.0766 10.3294 11.9997C10.3294 12.9228 11.0777 13.6711 12.0008 13.6711C12.9239 13.6711 13.6723 12.9228 13.6723 11.9997C13.6723 11.0766 12.9239 10.3283 12.0008 10.3283ZM8.52941 11.9997C8.52941 10.0825 10.0836 8.52829 12.0008 8.52829C13.9181 8.52829 15.4723 10.0825 15.4723 11.9997C15.4723 13.9169 13.9181 15.4711 12.0008 15.4711C10.0836 15.4711 8.52941 13.9169 8.52941 11.9997Z" fill="#00112F"/>
</svg>
