<svg width="24" height="24" viewBox="0 0 24 24" fill="none" xmlns="http://www.w3.org/2000/svg">
<path fill-rule="evenodd" clip-rule="evenodd" d="M5.00829 3.29442C5.49856 2.80414 6.16351 2.52871 6.85686 2.52871H13.714C13.9527 2.52871 14.1816 2.62353 14.3504 2.79231L19.4933 7.93517C19.662 8.10395 19.7569 8.33287 19.7569 8.57157V18.8573C19.7569 19.5506 19.4814 20.2156 18.9912 20.7059C18.5009 21.1961 17.8359 21.4716 17.1426 21.4716H6.85686C6.16351 21.4716 5.49856 21.1961 5.00829 20.7059C4.51801 20.2156 4.24258 19.5506 4.24258 18.8573V5.14299C4.24258 4.44964 4.51801 3.78469 5.00829 3.29442ZM6.85686 4.32871C6.6409 4.32871 6.43379 4.4145 6.28108 4.56721C6.12837 4.71992 6.04258 4.92703 6.04258 5.14299V18.8573C6.04258 19.0732 6.12837 19.2804 6.28108 19.4331C6.43379 19.5858 6.6409 19.6716 6.85686 19.6716H17.1426C17.3585 19.6716 17.5657 19.5858 17.7184 19.4331C17.8711 19.2804 17.9569 19.0732 17.9569 18.8573V9.47157H13.714C13.217 9.47157 12.814 9.06862 12.814 8.57157V4.32871H6.85686ZM14.614 5.6015L16.6841 7.67157H14.614V5.6015ZM7.67115 9.42871C7.67115 8.93165 8.07409 8.52871 8.57115 8.52871H10.2854C10.7825 8.52871 11.1854 8.93165 11.1854 9.42871C11.1854 9.92577 10.7825 10.3287 10.2854 10.3287H8.57115C8.07409 10.3287 7.67115 9.92577 7.67115 9.42871ZM7.67115 12.8573C7.67115 12.3602 8.07409 11.9573 8.57115 11.9573H15.4283C15.9253 11.9573 16.3283 12.3602 16.3283 12.8573C16.3283 13.3543 15.9253 13.7573 15.4283 13.7573H8.57115C8.07409 13.7573 7.67115 13.3543 7.67115 12.8573ZM7.67115 16.2859C7.67115 15.7888 8.07409 15.3859 8.57115 15.3859H15.4283C15.9253 15.3859 16.3283 15.7888 16.3283 16.2859C16.3283 16.7829 15.9253 17.1859 15.4283 17.1859H8.57115C8.07409 17.1859 7.67115 16.7829 7.67115 16.2859Z" fill="#00112F"/>
</svg>
