<svg width="24" height="24" viewBox="0 0 24 24" fill="none" xmlns="http://www.w3.org/2000/svg">
<path fill-rule="evenodd" clip-rule="evenodd" d="M2.61133 3.90685C2.7588 3.58901 3.07734 3.38564 3.42773 3.38564H20.5706C20.921 3.38564 21.2395 3.58901 21.387 3.90685C21.5345 4.2247 21.4841 4.59925 21.2578 4.8668L14.6134 12.7237V20.5714C14.6134 20.8833 14.4519 21.173 14.1866 21.3369C13.9213 21.5009 13.5899 21.5158 13.311 21.3763L9.88238 19.6621C9.57748 19.5096 9.38488 19.198 9.38488 18.8571V12.7237L2.74052 4.8668C2.51426 4.59925 2.46386 4.2247 2.61133 3.90685ZM5.36751 5.18564L10.9721 11.8131C11.1095 11.9755 11.1849 12.1814 11.1849 12.3942V18.3008L12.8134 19.1151V12.3942C12.8134 12.1814 12.8888 11.9755 13.0262 11.8131L18.6308 5.18564H5.36751Z" fill="#00112F"/>
</svg>
