<svg width="24" height="24" viewBox="0 0 24 24" fill="none" xmlns="http://www.w3.org/2000/svg">
<path fill-rule="evenodd" clip-rule="evenodd" d="M5.14203 5.18613C4.92606 5.18613 4.71895 5.27192 4.56624 5.42463C4.41353 5.57734 4.32774 5.78445 4.32774 6.00042V18.0004C4.32774 18.2164 4.41353 18.4235 4.56624 18.5762C4.71895 18.7289 4.92606 18.8147 5.14203 18.8147H18.8563C19.0723 18.8147 19.2794 18.7289 19.4321 18.5762C19.5848 18.4235 19.6706 18.2164 19.6706 18.0004V8.57185C19.6706 8.35588 19.5848 8.14877 19.4321 7.99606C19.2794 7.84335 19.0723 7.75756 18.8563 7.75756H11.142C10.8411 7.75756 10.5601 7.60717 10.3932 7.35679L8.94607 5.18613H5.14203ZM3.29345 4.15184C3.78372 3.66156 4.44867 3.38613 5.14203 3.38613H9.42774C9.72866 3.38613 10.0097 3.53652 10.1766 3.7869L11.6237 5.95756H18.8563C19.5497 5.95756 20.2146 6.23299 20.7049 6.72327C21.1952 7.21354 21.4706 7.87849 21.4706 8.57185V18.0004C21.4706 18.6938 21.1952 19.3587 20.7049 19.849C20.2146 20.3393 19.5497 20.6147 18.8563 20.6147H5.14203C4.44867 20.6147 3.78372 20.3393 3.29345 19.849C2.80317 19.3587 2.52774 18.6938 2.52774 18.0004V6.00042C2.52774 5.30707 2.80317 4.64211 3.29345 4.15184Z" fill="#00112F"/>
</svg>
