<svg width="24" height="24" viewBox="0 0 24 24" fill="none" xmlns="http://www.w3.org/2000/svg">
<path fill-rule="evenodd" clip-rule="evenodd" d="M15.5277 3.39164C16.0217 3.44653 16.3777 3.89151 16.3228 4.38552L15.8624 8.52899H18.8569C19.3539 8.52899 19.7569 8.93194 19.7569 9.42899C19.7569 9.92605 19.3539 10.329 18.8569 10.329H15.6624L15.291 13.6719H18.8569C19.3539 13.6719 19.7569 14.0748 19.7569 14.5718C19.7569 15.0689 19.3539 15.4718 18.8569 15.4718H15.091L14.6085 19.8141C14.5536 20.3081 14.1086 20.6641 13.6146 20.6092C13.1206 20.5543 12.7646 20.1093 12.8195 19.6153L13.2799 15.4718H9.94812L9.46565 19.8141C9.41076 20.3081 8.96578 20.6641 8.47177 20.6092C7.97775 20.5543 7.62177 20.1093 7.67666 19.6153L8.13705 15.4718H5.14258C4.64553 15.4718 4.24258 15.0689 4.24258 14.5718C4.24258 14.0748 4.64553 13.6719 5.14258 13.6719H8.33705L8.70847 10.329H5.14258C4.64553 10.329 4.24258 9.92605 4.24258 9.42899C4.24258 8.93194 4.64553 8.52899 5.14258 8.52899H8.90847L9.39095 4.18675C9.44584 3.69273 9.89081 3.33675 10.3848 3.39164C10.8788 3.44653 11.2348 3.89151 11.1799 4.38552L10.7196 8.52899H14.0513L14.5338 4.18675C14.5887 3.69273 15.0337 3.33675 15.5277 3.39164ZM13.8513 10.329H10.5196L10.1481 13.6719H13.4799L13.8513 10.329Z" fill="#00112F"/>
</svg>
