<svg width="24" height="24" viewBox="0 0 24 24" fill="none" xmlns="http://www.w3.org/2000/svg">
<path fill-rule="evenodd" clip-rule="evenodd" d="M5.18477 6.00003C5.18477 5.55031 5.54933 5.18574 5.99905 5.18574H17.9991C18.4488 5.18574 18.8133 5.55031 18.8133 6.00003V12.3987L16.064 9.64935C15.7125 9.29787 15.1427 9.29787 14.7912 9.64935L5.68784 18.7527C5.39253 18.6305 5.18477 18.3395 5.18477 18V6.00003ZM15.4276 11.5585L18.8133 14.9442V18C18.8133 18.4497 18.4488 18.8143 17.9991 18.8143H8.17184L15.4276 11.5585ZM5.99905 3.38574C4.55522 3.38574 3.38477 4.5562 3.38477 6.00003V18C3.38477 19.4439 4.55522 20.6143 5.99905 20.6143H17.9991C19.4429 20.6143 20.6133 19.4439 20.6133 18V6.00003C20.6133 4.5562 19.4429 3.38574 17.9991 3.38574H5.99905ZM10.2515 9.00073C10.2515 9.8274 9.58131 10.4976 8.75464 10.4976C7.92796 10.4976 7.25781 9.8274 7.25781 9.00073C7.25781 8.17406 7.92796 7.50391 8.75464 7.50391C9.58131 7.50391 10.2515 8.17406 10.2515 9.00073Z" fill="#00112F"/>
</svg>
