<svg width="24" height="24" viewBox="0 0 24 24" fill="none" xmlns="http://www.w3.org/2000/svg">
<path d="M11.3647 14.2077C11.5335 14.3765 11.7624 14.4713 12.0011 14.4713C12.2398 14.4713 12.4687 14.3765 12.6375 14.2077L16.0661 10.7791C16.4176 10.4276 16.4176 9.8578 16.0661 9.50632C15.7146 9.15485 15.1448 9.15485 14.7933 9.50632L12.9011 11.3985V3.42843C12.9011 2.93138 12.4982 2.52843 12.0011 2.52843C11.5041 2.52843 11.1011 2.93138 11.1011 3.42843L11.1011 11.3985L9.20895 9.50632C8.85748 9.15485 8.28763 9.15485 7.93616 9.50632C7.58468 9.85779 7.58468 10.4276 7.93615 10.7791L11.3647 14.2077Z" fill="#00112F"/>
<path d="M5.04258 12C5.04258 11.5029 4.63964 11.1 4.14258 11.1C3.64553 11.1 3.24258 11.5029 3.24258 12V18.8571C3.24258 19.5505 3.51802 20.2155 4.00829 20.7057C4.49856 21.196 5.16352 21.4714 5.85687 21.4714H18.1426C18.8359 21.4714 19.5009 21.196 19.9912 20.7057C20.4814 20.2155 20.7569 19.5505 20.7569 18.8571V12C20.7569 11.5029 20.3539 11.1 19.8569 11.1C19.3598 11.1 18.9569 11.5029 18.9569 12V18.8571C18.9569 19.0731 18.8711 19.2802 18.7184 19.4329C18.5657 19.5856 18.3585 19.6714 18.1426 19.6714H5.85687C5.64091 19.6714 5.43379 19.5856 5.28108 19.4329C5.12837 19.2802 5.04258 19.0731 5.04258 18.8571V12Z" fill="#00112F"/>
</svg>
