<svg width="24" height="24" viewBox="0 0 24 24" fill="none" xmlns="http://www.w3.org/2000/svg">
<path d="M12.8988 12.5673C12.8988 12.0702 12.4958 11.6673 11.9988 11.6673C11.5017 11.6673 11.0988 12.0702 11.0988 12.5673V15.9958C11.0988 16.4929 11.5017 16.8958 11.9988 16.8958C12.4958 16.8958 12.8988 16.4929 12.8988 15.9958V12.5673Z" fill="#00112F"/>
<path d="M12.0008 10.2515C12.6991 10.2515 13.2652 9.68542 13.2652 8.98709C13.2652 8.28876 12.6991 7.72266 12.0008 7.72266C11.3024 7.72266 10.7363 8.28876 10.7363 8.98709C10.7363 9.68542 11.3024 10.2515 12.0008 10.2515Z" fill="#00112F"/>
<path fill-rule="evenodd" clip-rule="evenodd" d="M11.9988 2.52832C6.76785 2.52832 2.52734 6.76882 2.52734 11.9997C2.52734 17.2307 6.76785 21.4712 11.9988 21.4712C17.2297 21.4712 21.4702 17.2307 21.4702 11.9997C21.4702 6.76882 17.2297 2.52832 11.9988 2.52832ZM4.32734 11.9997C4.32734 7.76294 7.76196 4.32832 11.9988 4.32832C16.2356 4.32832 19.6702 7.76294 19.6702 11.9997C19.6702 16.2366 16.2356 19.6712 11.9988 19.6712C7.76196 19.6712 4.32734 16.2366 4.32734 11.9997Z" fill="#00112F"/>
</svg>
