<svg width="24" height="24" viewBox="0 0 24 24" fill="none" xmlns="http://www.w3.org/2000/svg">
<path fill-rule="evenodd" clip-rule="evenodd" d="M19.2936 4.53518C17.3801 2.62161 14.2775 2.62161 12.364 4.53517L10.9498 5.94939L12.2226 7.22218L13.6368 5.80797C14.8474 4.59734 16.8102 4.59734 18.0208 5.80797C19.2315 7.01859 19.2315 8.9814 18.0208 10.192L15.1924 13.0205C13.9818 14.2311 12.019 14.2311 10.8083 13.0205L9.53555 14.2932C11.4491 16.2068 14.5516 16.2068 16.4652 14.2932L19.2936 11.4648C21.2072 9.55125 21.2072 6.44874 19.2936 4.53518ZM14.2932 9.53518C12.3797 7.62161 9.27717 7.62161 7.3636 9.53517L4.53518 12.3636C2.62161 14.2772 2.62161 17.3797 4.53518 19.2932C6.44874 21.2068 9.55125 21.2068 11.4648 19.2932L12.879 17.879L11.6062 16.6062L10.192 18.0205C8.9814 19.2311 7.01859 19.2311 5.80797 18.0205C4.59734 16.8098 4.59734 14.847 5.80797 13.6364L8.63639 10.808C9.84702 9.59734 11.8098 9.59734 13.0205 10.808C13.2375 11.025 13.4147 11.265 13.5532 11.5194L15.1343 10.6591C14.9143 10.2547 14.6336 9.87551 14.2932 9.53518Z" fill="#00112F"/>
</svg>
