<svg width="24" height="24" viewBox="0 0 24 24" fill="none" xmlns="http://www.w3.org/2000/svg">
<path fill-rule="evenodd" clip-rule="evenodd" d="M6.9 5.143C6.9 4.69328 7.26457 4.32871 7.71428 4.32871H16.2857C16.7354 4.32871 17.1 4.69328 17.1 5.143V18.8573C17.1 19.307 16.7354 19.6716 16.2857 19.6716H7.71428C7.26457 19.6716 6.9 19.307 6.9 18.8573V5.143ZM7.71428 2.52871C6.27045 2.52871 5.1 3.69917 5.1 5.143V18.8573C5.1 20.3011 6.27045 21.4716 7.71428 21.4716H16.2857C17.7295 21.4716 18.9 20.3011 18.9 18.8573V5.143C18.9 3.69917 17.7295 2.52871 16.2857 2.52871H7.71428ZM11.7875 17.5352C12.6138 17.5352 13.2836 16.8654 13.2836 16.0391C13.2836 15.2129 12.6138 14.543 11.7875 14.543C10.9612 14.543 10.2914 15.2129 10.2914 16.0391C10.2914 16.8654 10.9612 17.5352 11.7875 17.5352Z" fill="#00112F"/>
</svg>
