<svg width="24" height="24" viewBox="0 0 24 24" fill="none" xmlns="http://www.w3.org/2000/svg">
<path d="M5.99972 10.3931C5.11212 10.3931 4.39258 11.1126 4.39258 12.0002C4.39258 12.8878 5.11212 13.6074 5.99972 13.6074C6.88732 13.6074 7.60686 12.8878 7.60686 12.0002C7.60686 11.1126 6.88732 10.3931 5.99972 10.3931Z" fill="#00112F"/>
<path d="M11.9997 10.3931C11.1121 10.3931 10.3926 11.1126 10.3926 12.0002C10.3926 12.8878 11.1121 13.6074 11.9997 13.6074C12.8873 13.6074 13.6069 12.8878 13.6069 12.0002C13.6069 11.1126 12.8873 10.3931 11.9997 10.3931Z" fill="#00112F"/>
<path d="M17.9997 10.3931C17.1121 10.3931 16.3926 11.1126 16.3926 12.0002C16.3926 12.8878 17.1121 13.6074 17.9997 13.6074C18.8873 13.6074 19.6069 12.8878 19.6069 12.0002C19.6069 11.1126 18.8873 10.3931 17.9997 10.3931Z" fill="#00112F"/>
</svg>
