<svg width="24" height="24" viewBox="0 0 24 24" fill="none" xmlns="http://www.w3.org/2000/svg">
<path fill-rule="evenodd" clip-rule="evenodd" d="M5.72617 19.619V4.38026H7.48476V5.88147C7.48476 6.62052 8.05863 7.3373 8.90105 7.3373H15.1068C15.9439 7.3373 16.5256 6.62552 16.5179 5.87576V4.38026H18.2746V19.619H5.72617ZM14.7179 4.38026H9.28476V5.5373H14.7179V4.38026ZM15.1016 2.58027H18.5431C19.3252 2.58027 20.0746 3.18751 20.0746 4.06781V19.9315C20.0746 20.8118 19.3252 21.419 18.5431 21.419H5.4577C4.6756 21.419 3.92617 20.8118 3.92617 19.9315V4.06781C3.92617 3.18751 4.6756 2.58027 5.4577 2.58027H8.90105H15.1016ZM7.7543 11.534C7.7543 11.0369 8.15724 10.634 8.6543 10.634H15.6174C16.1145 10.634 16.5174 11.0369 16.5174 11.534C16.5174 12.031 16.1145 12.434 15.6174 12.434H8.6543C8.15724 12.434 7.7543 12.031 7.7543 11.534ZM8.6543 14.1721C8.15724 14.1721 7.7543 14.575 7.7543 15.0721C7.7543 15.5691 8.15724 15.9721 8.6543 15.9721H15.6174C16.1145 15.9721 16.5174 15.5691 16.5174 15.0721C16.5174 14.575 16.1145 14.1721 15.6174 14.1721H8.6543Z" fill="#00112F"/>
</svg>
