<svg width="24" height="24" viewBox="0 0 24 24" fill="none" xmlns="http://www.w3.org/2000/svg">
<path fill-rule="evenodd" clip-rule="evenodd" d="M11.5936 4.97095C11.5934 4.97108 11.5939 4.97082 11.5936 4.97095L9.96436 5.78559L15.8438 8.7253L17.7753 7.75955L12.1981 4.97095C12.1978 4.97082 12.1984 4.97108 12.1981 4.97095C12.1044 4.92454 12.0004 4.9 11.8959 4.9C11.7913 4.9 11.6873 4.92454 11.5936 4.97095ZM18.8917 9.2138V16.2609C18.8916 16.3872 18.8563 16.5111 18.7897 16.6185C18.7231 16.7258 18.6279 16.8125 18.5148 16.8687L18.5128 16.8697L12.7959 19.7282L12.7959 12.2617L16.2381 10.5406C16.244 10.5377 16.2498 10.5348 16.2557 10.5318L18.8917 9.2138ZM13.8313 9.73153L7.9519 6.79182L6.01645 7.75955L11.8959 10.6993L13.8313 9.73153ZM10.9959 12.2617L4.90004 9.2138V16.2597C4.89916 16.3863 4.93365 16.5106 4.99965 16.6186C5.06544 16.7263 5.15992 16.8135 5.27249 16.8704C5.27285 16.8706 5.2732 16.8708 5.27356 16.871L10.9959 19.7321L10.9959 12.2617ZM10.7825 21.6379L4.46609 18.4797L4.46361 18.4785C4.05099 18.2706 3.70468 17.9515 3.46374 17.5572C3.22342 17.164 3.09748 16.7115 3.10004 16.2507V8.73665C3.10029 8.27542 3.22919 7.82293 3.47227 7.43095C3.71511 7.03933 4.0623 6.72315 4.47485 6.51789C4.47522 6.5177 4.4756 6.51751 4.47598 6.51732L7.47456 5.01803C7.52036 4.98977 7.56851 4.96573 7.61836 4.94613L10.7906 3.35999L10.7926 3.359C11.1355 3.18865 11.5131 3.1 11.8959 3.1C12.2787 3.1 12.6563 3.18865 12.9991 3.359L13.0011 3.35999L19.3158 6.51732C19.3161 6.51749 19.3164 6.51766 19.3168 6.51783C19.7294 6.72309 20.0766 7.03929 20.3195 7.43095C20.5625 7.82293 20.6914 8.27495 20.6917 8.73618V16.2614C20.6914 16.7226 20.5625 17.1751 20.3195 17.5671C20.0767 17.9586 19.7296 18.2747 19.3172 18.48C19.3167 18.4802 19.3162 18.4805 19.3158 18.4807L13.0013 21.6379C13.0013 21.638 13.0014 21.6379 13.0013 21.6379C12.657 21.8102 12.277 21.9 11.8919 21.9C11.5069 21.9 11.1269 21.8102 10.7825 21.6379C10.7826 21.638 10.7824 21.6379 10.7825 21.6379Z" fill="#00112F"/>
</svg>
