<svg width="24" height="24" viewBox="0 0 24 24" fill="none" xmlns="http://www.w3.org/2000/svg">
<path fill-rule="evenodd" clip-rule="evenodd" d="M11.9997 4.24258C12.4968 4.24258 12.8997 4.64553 12.8997 5.14258V11.0997H18.8569C19.3539 11.0997 19.7569 11.5027 19.7569 11.9997C19.7569 12.4968 19.3539 12.8997 18.8569 12.8997H12.8997V18.8569C12.8997 19.3539 12.4968 19.7569 11.9997 19.7569C11.5027 19.7569 11.0997 19.3539 11.0997 18.8569V12.8997H5.14258C4.64553 12.8997 4.24258 12.4968 4.24258 11.9997C4.24258 11.5027 4.64553 11.0997 5.14258 11.0997H11.0997V5.14258C11.0997 4.64553 11.5027 4.24258 11.9997 4.24258Z" fill="#00112F"/>
</svg>
