<svg width="24" height="24" viewBox="0 0 24 24" fill="none" xmlns="http://www.w3.org/2000/svg">
<path fill-rule="evenodd" clip-rule="evenodd" d="M6.00001 3.5C6.00001 3.00294 6.40295 2.6 6.90001 2.6H17.1C17.5971 2.6 18 3.00294 18 3.5V8.55H18.8C19.4896 8.55 20.1509 8.82393 20.6385 9.31152C21.1261 9.79912 21.4 10.4604 21.4 11.15V15.4C21.4 16.0896 21.1261 16.7509 20.6385 17.2385C20.1509 17.7261 19.4896 18 18.8 18H18V20.5C18 20.9971 17.5971 21.4 17.1 21.4H6.90001C6.40295 21.4 6.00001 20.9971 6.00001 20.5V18H5.20001C4.51044 18 3.84912 17.7261 3.36153 17.2385C2.87393 16.7509 2.60001 16.0896 2.60001 15.4V11.15C2.60001 10.4604 2.87393 9.79912 3.36153 9.31152C3.84912 8.82393 4.51044 8.55 5.20001 8.55H6.00001V3.5ZM5.20001 10.35C4.98783 10.35 4.78435 10.4343 4.63432 10.5843C4.48429 10.7343 4.40001 10.9378 4.40001 11.15V15.4C4.40001 15.6122 4.48429 15.8157 4.63432 15.9657C4.78435 16.1157 4.98783 16.2 5.20001 16.2H6.00001V13.7C6.00001 13.2029 6.40295 12.8 6.90001 12.8H17.1C17.5971 12.8 18 13.2029 18 13.7V16.2H18.8C19.0122 16.2 19.2157 16.1157 19.3657 15.9657C19.5157 15.8157 19.6 15.6122 19.6 15.4V11.15C19.6 10.9378 19.5157 10.7343 19.3657 10.5843C19.2157 10.4343 19.0122 10.35 18.8 10.35H5.20001ZM16.2 8.55H7.80001V4.4H16.2V8.55ZM16.2 14.6H7.80001V19.6H16.2V14.6Z" fill="#00112F"/>
</svg>
