<svg width="24" height="24" viewBox="0 0 24 24" fill="none" xmlns="http://www.w3.org/2000/svg">
<path fill-rule="evenodd" clip-rule="evenodd" d="M6.0324 7.29319C7.42515 5.52977 9.58103 4.4 12 4.4C16.1974 4.4 19.6 7.80263 19.6 12C19.6 12.4971 20.0029 12.9 20.5 12.9C20.9971 12.9 21.4 12.4971 21.4 12C21.4 6.80852 17.1915 2.6 12 2.6C8.51954 2.6 5.48205 4.49203 3.8581 7.29935C3.72439 7.5305 3.70023 7.8091 3.79216 8.05982C3.88409 8.31054 4.08261 8.5075 4.33406 8.59743L6.97469 9.54187C7.44271 9.70926 7.95782 9.46556 8.12521 8.99753C8.2926 8.52951 8.04889 8.01441 7.58087 7.84701L6.0324 7.29319ZM3.5 11.1C3.99706 11.1 4.4 11.5029 4.4 12C4.4 16.1974 7.80264 19.6 12 19.6C14.419 19.6 16.5749 18.4702 17.9676 16.7068L16.4191 16.153C15.9511 15.9856 15.7074 15.4705 15.8748 15.0025C16.0422 14.5344 16.5573 14.2907 17.0253 14.4581L19.6659 15.4026C19.9174 15.4925 20.1159 15.6895 20.2078 15.9402C20.2998 16.1909 20.2756 16.4695 20.1419 16.7007C18.518 19.508 15.4805 21.4 12 21.4C6.80852 21.4 2.6 17.1915 2.6 12C2.6 11.5029 3.00294 11.1 3.5 11.1Z" fill="#00112F"/>
</svg>
