<svg width="24" height="24" viewBox="0 0 24 24" fill="none" xmlns="http://www.w3.org/2000/svg">
<path d="M8.60039 10.0004C8.60039 9.50333 9.00333 9.10039 9.50039 9.10039H14.5004C14.9974 9.10039 15.4004 9.50333 15.4004 10.0004C15.4004 10.4974 14.9974 10.9004 14.5004 10.9004H9.50039C9.00333 10.9004 8.60039 10.4974 8.60039 10.0004Z" fill="#00112F"/>
<path fill-rule="evenodd" clip-rule="evenodd" d="M19.0004 20.9004C20.0497 20.9004 20.9004 20.0497 20.9004 19.0004V8.40582C20.9004 6.99873 20.3414 5.64928 19.3465 4.65431C18.3515 3.65935 17.002 3.10039 15.595 3.10039H5.00039C3.95105 3.10039 3.10039 3.95105 3.10039 5.00039V19.0004C3.10039 20.0497 3.95105 20.9004 5.00039 20.9004H19.0004ZM5.00039 4.90039C4.94516 4.90039 4.90039 4.94516 4.90039 5.00039V19.0004C4.90039 19.0556 4.94516 19.1004 5.00039 19.1004H7.10039V15.0004C7.10039 13.951 7.95105 13.1004 9.00039 13.1004H15.0004C16.0497 13.1004 16.9004 13.951 16.9004 15.0004V19.1004H19.0004C19.0556 19.1004 19.1004 19.0556 19.1004 19.0004V8.40582C19.1004 7.47612 18.7311 6.5845 18.0737 5.92711C17.4163 5.26971 16.5247 4.90039 15.595 4.90039H5.00039ZM15.1004 19.1004V15.0004C15.1004 14.9452 15.0556 14.9004 15.0004 14.9004H9.00039C8.94516 14.9004 8.90039 14.9452 8.90039 15.0004V19.1004H15.1004Z" fill="#00112F"/>
</svg>
