<svg width="24" height="24" viewBox="0 0 24 24" fill="none" xmlns="http://www.w3.org/2000/svg">
<path fill-rule="evenodd" clip-rule="evenodd" d="M11.3633 2.79231C11.7148 2.44084 12.2847 2.44084 12.6361 2.79231L16.0647 6.22088C16.4162 6.57236 16.4162 7.14221 16.0647 7.49368C15.7132 7.84515 15.1434 7.84515 14.7919 7.49368L12.8997 5.6015V14.5716C12.8997 15.0686 12.4968 15.4716 11.9997 15.4716C11.5027 15.4716 11.0997 15.0686 11.0997 14.5716V5.6015L9.20755 7.49368C8.85608 7.84515 8.28623 7.84515 7.93476 7.49368C7.58329 7.14221 7.58329 6.57236 7.93476 6.22088L11.3633 2.79231ZM4.14258 11.1001C4.63964 11.1001 5.04258 11.5031 5.04258 12.0001V18.8573C5.04258 19.0732 5.12837 19.2804 5.28108 19.4331C5.43379 19.5858 5.64091 19.6716 5.85687 19.6716H18.1426C18.3585 19.6716 18.5657 19.5858 18.7184 19.4331C18.8711 19.2804 18.9569 19.0732 18.9569 18.8573V12.0001C18.9569 11.5031 19.3598 11.1001 19.8569 11.1001C20.3539 11.1001 20.7569 11.5031 20.7569 12.0001V18.8573C20.7569 19.5506 20.4814 20.2156 19.9912 20.7059C19.5009 21.1961 18.8359 21.4716 18.1426 21.4716H5.85687C5.16352 21.4716 4.49856 21.1961 4.00829 20.7059C3.51802 20.2156 3.24258 19.5506 3.24258 18.8573V12.0001C3.24258 11.5031 3.64553 11.1001 4.14258 11.1001Z" fill="#00112F"/>
</svg>
