<svg width="24" height="24" viewBox="0 0 24 24" fill="none" xmlns="http://www.w3.org/2000/svg">
<path d="M11.7896 2C6.38307 2 2 6.47718 2 12C2 17.5234 6.38307 22 11.7896 22C17.1961 22 21.5792 17.5228 21.5792 12C21.5786 6.47718 17.1961 2 11.7896 2ZM9.75732 20.4704C9.44053 19.1611 8.48372 15.2679 8.48372 15.2679L12.9907 20.765C12.9907 20.765 10.9912 21.0333 9.75732 20.4704ZM13.4314 20.6177C11.7551 18.5907 8.14063 14.2853 8.14063 14.2853L16.5175 19.1454C16.5181 19.1448 15.7887 20.0747 13.4314 20.6177ZM16.794 18.9642C13.6529 17.078 8.14998 13.7733 8.14998 13.7733L6.69168 8.50652C6.69168 8.50652 6.60576 8.03776 6.67064 7.80513C6.71156 7.67187 7.16278 7.52166 7.16278 7.52166L12.4571 6.01426C12.4571 6.01426 17.1318 8.41534 20.3389 10.1612C21.1227 13.6716 18.7701 17.6386 16.794 18.9642ZM10.7445 8.82915C10.1209 8.82915 9.61471 9.34467 9.61471 9.98059C9.61471 10.6165 10.1203 11.132 10.7445 11.132C11.3682 11.132 11.8738 10.6165 11.8738 9.98059C11.8738 9.34467 11.3682 8.82915 10.7445 8.82915Z" fill="#00112F"/>
</svg>
