<svg width="24" height="24" viewBox="0 0 24 24" fill="none" xmlns="http://www.w3.org/2000/svg">
<path fill-rule="evenodd" clip-rule="evenodd" d="M10.2828 4.4C10.0632 4.4 9.85436 4.48646 9.70179 4.6375C9.54953 4.78824 9.46566 4.99076 9.46566 5.2V6H14.5343V5.2C14.5343 4.99076 14.4505 4.78824 14.2982 4.6375C14.1456 4.48646 13.9368 4.4 13.7172 4.4H10.2828ZM16.3343 6V5.2C16.3343 4.5075 16.0564 3.84521 15.5646 3.35833C15.0731 2.87175 14.4084 2.6 13.7172 2.6H10.2828C9.59161 2.6 8.92691 2.87175 8.43541 3.35833C7.94361 3.84521 7.66566 4.5075 7.66566 5.2V6H4.27273C3.77567 6 3.37273 6.40294 3.37273 6.9C3.37273 7.39705 3.77567 7.8 4.27273 7.8H5.0899V18.8C5.0899 19.4925 5.36786 20.1548 5.85966 20.6417C6.35115 21.1282 7.01585 21.4 7.70707 21.4H16.2929C16.9841 21.4 17.6488 21.1282 18.1403 20.6417C18.6321 20.1548 18.9101 19.4925 18.9101 18.8V7.8H19.7273C20.2243 7.8 20.6273 7.39705 20.6273 6.9C20.6273 6.40294 20.2243 6 19.7273 6H16.3343ZM6.8899 7.8V18.8C6.8899 19.0092 6.97377 19.2118 7.12604 19.3625C7.27861 19.5135 7.48744 19.6 7.70707 19.6H16.2929C16.5126 19.6 16.7214 19.5135 16.874 19.3625C17.0262 19.2118 17.1101 19.0092 17.1101 18.8V7.8H6.8899ZM10.2828 10.25C10.7799 10.25 11.1828 10.6529 11.1828 11.15V16.25C11.1828 16.7471 10.7799 17.15 10.2828 17.15C9.78577 17.15 9.38283 16.7471 9.38283 16.25V11.15C9.38283 10.6529 9.78577 10.25 10.2828 10.25ZM13.7172 10.25C14.2142 10.25 14.6172 10.6529 14.6172 11.15V16.25C14.6172 16.7471 14.2142 17.15 13.7172 17.15C13.2201 17.15 12.8172 16.7471 12.8172 16.25V11.15C12.8172 10.6529 13.2201 10.25 13.7172 10.25Z" fill="#00112F"/>
</svg>
