<svg width="24" height="24" viewBox="0 0 24 24" fill="none" xmlns="http://www.w3.org/2000/svg">
<path fill-rule="evenodd" clip-rule="evenodd" d="M2.59961 5.39309C2.59961 4.34375 3.45027 3.49309 4.49961 3.49309H14.5602C15.6096 3.49309 16.4602 4.34375 16.4602 5.39309V6.80032H17.9239C18.2009 6.80032 18.4625 6.92791 18.633 7.14621L21.2088 10.4429C21.3324 10.6011 21.3996 10.7962 21.3996 10.997V17.103C21.3996 17.6001 20.9967 18.003 20.4996 18.003C20.0026 18.003 19.5996 17.6001 19.5996 17.103V11.3069L17.4849 8.60032H15.5602C15.0632 8.60032 14.6602 8.19738 14.6602 7.70032V5.39309C14.6602 5.33786 14.6155 5.29309 14.5602 5.29309H4.49961C4.44438 5.29309 4.39961 5.33786 4.39961 5.39309V17.103C4.39961 17.6001 3.99667 18.003 3.49961 18.003C3.00255 18.003 2.59961 17.6001 2.59961 17.103V5.39309ZM15.8056 9.59412C16.3027 9.59412 16.7056 9.99706 16.7056 10.4941V10.9784H17.2108C17.7079 10.9784 18.1108 11.3814 18.1108 11.8784C18.1108 12.3755 17.7079 12.7784 17.2108 12.7784H15.8056C15.3086 12.7784 14.9056 12.3755 14.9056 11.8784V10.4941C14.9056 9.99706 15.3086 9.59412 15.8056 9.59412ZM7.39961 17.855C7.39961 17.3845 7.78103 17.003 8.25154 17.003C8.72205 17.003 9.10347 17.3845 9.10347 17.855C9.10347 18.3255 8.72205 18.7069 8.25154 18.7069C7.78103 18.7069 7.39961 18.3255 7.39961 17.855ZM8.25154 15.203C6.78692 15.203 5.59961 16.3904 5.59961 17.855C5.59961 19.3196 6.78692 20.5069 8.25154 20.5069C9.39764 20.5069 10.3739 19.7799 10.7444 18.7618H13.2079C13.5784 19.7799 14.5547 20.5069 15.7008 20.5069C17.1654 20.5069 18.3527 19.3196 18.3527 17.855C18.3527 16.3904 17.1654 15.203 15.7008 15.203C14.5495 15.203 13.5696 15.9366 13.203 16.9618H10.7493C10.3827 15.9366 9.40278 15.203 8.25154 15.203ZM14.8563 17.9682C14.8604 17.9333 14.8625 17.8978 14.8625 17.8618C14.8625 17.8234 14.8601 17.7856 14.8554 17.7485C14.9078 17.3282 15.2663 17.003 15.7008 17.003C16.1713 17.003 16.5527 17.3845 16.5527 17.855C16.5527 18.3255 16.1713 18.7069 15.7008 18.7069C15.2686 18.7069 14.9116 18.3852 14.8563 17.9682Z" fill="#00112F"/>
</svg>
